<svg xmlns="http://www.w3.org/2000/svg" viewBox="0 0 1080 1080"><defs><style>.a{fill:#ff449e;}.b{fill:#fff;}</style></defs><circle class="a" cx="540" cy="540" r="540"/><path class="b" d="M276.89,482l-17.38,64.88A132,132,0,0,0,256.14,595l-49.26,40.55c-9.19,7.57-22.82-.6-20.46-12.27L208,516a12.66,12.66,0,0,0-11.2-15.1l-109-10.57c-11.85-1.15-15.71-16.55-5.79-23.14l91.16-60.59A12.69,12.69,0,0,0,176,388l-69.56-84.53c-7.57-9.2.61-22.81,12.29-20.46l107.3,21.6a12.66,12.66,0,0,0,15.11-11.19l10.57-109c1.14-11.87,16.55-15.71,23.16-5.79l60.59,91.15a12.67,12.67,0,0,0,18.59,2.77L438.59,203c9.2-7.57,22.81.6,20.46,12.27L443.2,293.89c-3.8,4.26-7.6,8.52-11.07,13.15l-45,60.13-15,20C326.35,399.46,289.34,435.53,276.89,482ZM969,667.42l-17.38,64.87A87.73,87.73,0,0,1,927,773.38a92.5,92.5,0,0,1-12.26,9.79l-19.57,73.09a44.75,44.75,0,0,1-54.84,31.66l-43.26-11.58a44.78,44.78,0,0,1-31.66-54.84L777,778.25,431,685.53l-11.59,43.25a44.78,44.78,0,0,1-54.84,31.67L321.3,748.86A44.78,44.78,0,0,1,289.63,694l19.58-73.09a93.11,93.11,0,0,1-5.72-14.62,87.63,87.63,0,0,1-.73-47.85l17.38-64.89a88.91,88.91,0,0,1,51.62-59.07,90.13,90.13,0,0,1,25.87-6.6L423,394l45-60.13a157.66,157.66,0,0,1,53.09-45.26,152.82,152.82,0,0,1,21.06-9.08,155.57,155.57,0,0,1,45.12-8.46A158.17,158.17,0,0,1,634,276.38l171.66,46a157.76,157.76,0,0,1,43.17,18.79,156,156,0,0,1,71.89,114l8.89,74.57,5,42.05A90.22,90.22,0,0,1,966.5,613.7,88.42,88.42,0,0,1,969,667.42ZM434.07,500.93c-25.95-7-47.87,5.65-54.81,31.53S385,580.2,411,587.16s63.72,21.7,70.65-4.17S460,507.88,434.07,500.93Zm406.66,39.42-8.9-74.57a67.18,67.18,0,0,0-49.31-56.93l-171.67-46a67.17,67.17,0,0,0-71.17,24.64l-45,60.13,240.68,64.48Zm25.87,76.47c-26-7-75.28,21.42-82.21,47.28s33.15,32,59.11,38.95,47.87-5.66,54.81-31.53S892.56,623.78,866.6,616.82Z"/></svg>