<?xml version="1.0" encoding="utf-8"?>
<!-- Generator: Adobe Illustrator 26.0.2, SVG Export Plug-In . SVG Version: 6.00 Build 0)  -->
<svg version="1.1" id="Layer_1" xmlns="http://www.w3.org/2000/svg" xmlns:xlink="http://www.w3.org/1999/xlink" x="0px" y="0px"
	 viewBox="0 0 140.04 78.15" style="enable-background:new 0 0 140.04 78.15;" xml:space="preserve">
<style type="text/css">
	.st0{fill:#FF00FF;}
	.st1{fill:none;stroke:#FFFFFF;stroke-width:3;}
</style>
<g>
	<path class="st0" d="M0.07,3.64C0.12,1.79,0.26,0.74,0.5,0.5c0.24-0.24,0.7-0.38,1.37-0.43C2.54,0.02,4.54,0,7.85,0
		c4.51,0,6.91,0.17,7.2,0.5c0.24,0.29,0.38,7.13,0.43,20.52l0.07,20.02h4.1l0.07-13.18c0.05-8.83,0.19-13.39,0.43-13.68
		c0.24-0.29,1.58-0.43,4.03-0.43c2.45,0,3.79,0.14,4.03,0.43c0.24,0.29,0.38,4.85,0.43,13.68l0.07,13.18h4.1l0.07-20.02
		C32.95,7.63,33.1,0.79,33.34,0.5c0.29-0.34,2.69-0.5,7.2-0.5c3.31,0,5.3,0.02,5.98,0.07c0.67,0.05,1.13,0.19,1.37,0.43
		c0.24,0.24,0.38,1.28,0.43,3.13c0.05,1.85,0.07,7.88,0.07,18.11c0,13.82-0.12,20.9-0.36,21.24c-0.19,0.29-0.44,0.46-0.76,0.5
		c-0.31,0.05-1.16,0.07-2.56,0.07h-2.88v2.95c0,1.97-0.14,3.1-0.43,3.38c-0.29,0.34-2.71,0.5-7.27,0.5c-4.56,0-7.01-0.14-7.34-0.43
		c-0.29-0.24-0.43-1.39-0.43-3.46v-2.95h-4.32v2.95c0,1.97-0.14,3.1-0.43,3.38c-0.29,0.34-2.69,0.5-7.2,0.5h-2.52
		c-2.54,0-4.07-0.13-4.57-0.4c-0.5-0.26-0.76-1.02-0.76-2.27v-1.3v-2.88H3.67c-1.39,0-2.24-0.02-2.56-0.07
		c-0.31-0.05-0.56-0.22-0.76-0.5C0.12,42.65,0,35.57,0,21.74C0,11.52,0.02,5.48,0.07,3.64z"/>
	<path class="st0" d="M61.85,15.12c0.29-0.24,4.34-0.36,12.17-0.36c7.87,0,11.95,0.12,12.24,0.36c0.19,0.19,0.31,0.43,0.36,0.72
		c0.05,0.29,0.07,1.2,0.07,2.74v3.1h2.52H90c1.1,0,1.8,0.11,2.09,0.32c0.29,0.22,0.43,0.78,0.43,1.69c0,0.14-0.01,0.43-0.04,0.86
		c-0.02,0.43-0.04,0.79-0.04,1.08c-0.05,1.34-0.07,2.42-0.07,3.24c0,0.82,0.02,1.97,0.07,3.46c0,0.38,0.01,0.8,0.04,1.26
		c0.02,0.46,0.04,0.73,0.04,0.83c0,0.24,0,0.42,0,0.54c0,0.12-0.02,0.25-0.07,0.4c-0.05,0.14-0.08,0.23-0.11,0.25
		c-0.02,0.02-0.11,0.11-0.25,0.25s-0.24,0.26-0.29,0.36l-9,0.07c-1.97,0-4.3,0.01-6.98,0.04c-2.69,0.02-4.1,0.04-4.25,0.04h-2.3
		v5.98h8.35c5.52,0,8.42,0.14,8.71,0.43c0.24,0.24,0.36,1.39,0.36,3.46c0,1.54-0.02,2.45-0.07,2.74c-0.05,0.29-0.17,0.53-0.36,0.72
		c-0.29,0.24-4.37,0.36-12.24,0.36c-7.82,0-11.88-0.12-12.17-0.36c-0.19-0.19-0.31-0.43-0.36-0.72c-0.05-0.29-0.07-1.2-0.07-2.74
		v-3.1h-2.59H58.1c-1.1,0-1.8-0.11-2.09-0.32c-0.29-0.22-0.43-0.78-0.43-1.69c0-0.14,0.01-0.43,0.04-0.86
		c0.02-0.43,0.04-0.79,0.04-1.08v-1.22v-2.38v-2.95c0-0.38,0.01-0.97,0.04-1.76c0.02-0.79,0.04-1.4,0.04-1.84
		c0-1.2-0.02-2.33-0.07-3.38c0-0.29-0.01-0.64-0.04-1.04c-0.02-0.41-0.04-0.68-0.04-0.83c0-0.96,0.14-1.55,0.43-1.76
		c0.29-0.22,1.03-0.32,2.23-0.32h0.65h2.52v-3.1c0-1.54,0.02-2.45,0.07-2.74C61.53,15.55,61.65,15.31,61.85,15.12z M78.84,28.37
		v-5.9h-9.58v5.9l2.38,0.07c0.19,0,0.56,0.01,1.12,0.04c0.55,0.02,0.97,0.04,1.26,0.04c0.29,0,0.72-0.01,1.3-0.04
		c0.58-0.02,0.96-0.04,1.15-0.04L78.84,28.37z"/>
	<path class="st0" d="M99.79,3.64c0.05-1.85,0.17-2.89,0.36-3.13c0.19-0.24,0.56-0.38,1.12-0.43c0.55-0.05,2.2-0.07,4.93-0.07
		c3.79,0,5.81,0.17,6.05,0.5c0.24,0.34,0.38,7.18,0.43,20.52v20.02h14.4V21.02c0.05-13.34,0.19-20.18,0.43-20.52
		c0.24-0.34,2.26-0.5,6.05-0.5c2.74,0,4.38,0.02,4.93,0.07c0.55,0.05,0.92,0.19,1.12,0.43c0.19,0.24,0.31,1.28,0.36,3.13
		c0.05,1.85,0.07,7.88,0.07,18.11c0,13.73-0.12,20.81-0.36,21.24c-0.14,0.29-0.35,0.46-0.61,0.5c-0.26,0.05-0.97,0.07-2.12,0.07
		h-2.38v2.95c0,1.97-0.12,3.1-0.36,3.38c-0.1,0.14-0.26,0.24-0.5,0.29c-0.24,0.05-0.86,0.1-1.87,0.14c-1.01,0.05-2.38,0.07-4.1,0.07
		s-4.32,0-7.78,0c-6.86,0-10.92-0.02-12.17-0.07c-1.25-0.05-1.97-0.19-2.16-0.43c-0.29-0.34-0.43-1.49-0.43-3.46v-2.88h-2.38
		c-1.15,0-1.86-0.02-2.12-0.07c-0.26-0.05-0.47-0.22-0.61-0.5c-0.24-0.43-0.36-7.51-0.36-21.24C99.72,11.52,99.74,5.48,99.79,3.64z"
		/>
</g>
<g>
	<g>
		<path d="M35.22,49.71c-2.92-2.92-6.81-4.54-10.95-4.54c-4.14,0-8.02,1.61-10.95,4.54c-2.92,2.92-4.54,6.81-4.54,10.95
			s1.61,8.02,4.54,10.95c2.92,2.92,6.81,4.54,10.95,4.54c4.14,0,8.02-1.61,10.95-4.54c2.92-2.92,4.54-6.81,4.54-10.95
			S38.15,52.64,35.22,49.71z M34.59,56.2c0.16,0.07,0.29,0.19,0.35,0.36c0.18,0.46,0.33,0.93,0.44,1.41
			c0.04,0.17,0.01,0.34-0.08,0.49c-0.09,0.14-0.24,0.25-0.4,0.28l-6.08,1.25c-0.04,0.01-0.08,0.01-0.13,0.01
			c-0.27,0-0.51-0.17-0.6-0.43c-0.1-0.3,0.05-0.63,0.34-0.77l5.67-2.57C34.25,56.13,34.43,56.13,34.59,56.2z M27.92,54.83l0.45-3.96
			c0.02-0.2,0.14-0.38,0.32-0.48c0.18-0.1,0.39-0.1,0.58-0.01c1.25,0.61,2.37,1.44,3.33,2.46c0.14,0.15,0.2,0.35,0.16,0.55
			c-0.04,0.2-0.17,0.37-0.36,0.45l-3.6,1.63c-0.08,0.04-0.17,0.06-0.26,0.06c-0.13,0-0.26-0.04-0.37-0.12
			C27.99,55.28,27.9,55.06,27.92,54.83z M23.09,49.48c0.11-0.13,0.27-0.21,0.44-0.22c0.5-0.03,1-0.03,1.49,0
			c0.17,0.01,0.33,0.09,0.44,0.22c0.11,0.13,0.16,0.3,0.14,0.47l-0.71,6.26c-0.04,0.32-0.3,0.56-0.62,0.56
			c-0.32,0-0.59-0.24-0.62-0.56l-0.71-6.26C22.92,49.78,22.98,49.61,23.09,49.48z M24.27,58.77c1.05,0,1.89,0.85,1.89,1.89
			s-0.85,1.89-1.89,1.89c-1.05,0-1.89-0.85-1.89-1.89S23.23,58.77,24.27,58.77z M15.95,52.84c0.96-1.02,2.08-1.85,3.33-2.46
			c0.18-0.09,0.4-0.08,0.58,0.01c0.18,0.1,0.3,0.28,0.32,0.48l0.45,3.96c0.03,0.22-0.07,0.45-0.25,0.58
			c-0.11,0.08-0.24,0.12-0.37,0.12c-0.09,0-0.18-0.02-0.26-0.06l-3.6-1.63c-0.18-0.08-0.32-0.25-0.36-0.45
			C15.75,53.19,15.81,52.99,15.95,52.84z M13.17,57.96c0.12-0.48,0.26-0.95,0.44-1.41c0.06-0.16,0.19-0.29,0.35-0.36
			c0.16-0.07,0.34-0.06,0.5,0.01l5.67,2.57c0.29,0.13,0.44,0.46,0.34,0.77c-0.09,0.26-0.33,0.43-0.6,0.43c-0.04,0-0.08,0-0.13-0.01
			l-6.08-1.25c-0.17-0.03-0.31-0.14-0.4-0.28C13.16,58.3,13.13,58.12,13.17,57.96z M14.79,66.47c-0.02,0-0.05,0-0.08,0
			c-0.2-0.02-0.38-0.14-0.48-0.32c-0.65-1.18-1.08-2.45-1.27-3.79c-0.03-0.2,0.04-0.41,0.19-0.55c0.15-0.14,0.36-0.2,0.56-0.16
			l3.77,0.77c0.22,0.05,0.4,0.21,0.47,0.42c0.07,0.22,0.02,0.45-0.13,0.62l-2.56,2.81C15.14,66.39,14.97,66.47,14.79,66.47z
			 M18.7,70.43c-0.05,0.01-0.1,0.02-0.15,0.02c-0.12,0-0.23-0.03-0.33-0.1c-0.4-0.25-0.8-0.54-1.17-0.84
			c-0.13-0.11-0.22-0.27-0.23-0.44c-0.01-0.17,0.05-0.34,0.16-0.47l4.1-4.49c0.22-0.24,0.57-0.27,0.83-0.08
			c0.26,0.19,0.34,0.54,0.18,0.82l-3,5.28C19.01,70.28,18.87,70.39,18.7,70.43z M26.69,71.57c-0.09,0.18-0.26,0.32-0.46,0.35
			c-0.64,0.11-1.3,0.17-1.95,0.17c-0.66,0-1.31-0.06-1.95-0.17c-0.2-0.03-0.37-0.17-0.46-0.35c-0.09-0.18-0.08-0.4,0.02-0.58
			l1.84-3.25c0.11-0.2,0.32-0.32,0.55-0.32c0.23,0,0.43,0.12,0.55,0.32L26.66,71C26.77,71.17,26.77,71.39,26.69,71.57z M31.73,69.07
			c-0.01,0.17-0.1,0.33-0.23,0.44c-0.37,0.3-0.76,0.59-1.17,0.84c-0.1,0.06-0.22,0.1-0.33,0.1c-0.05,0-0.1-0.01-0.15-0.02
			c-0.17-0.04-0.31-0.15-0.39-0.3l-3-5.28c-0.16-0.28-0.08-0.63,0.18-0.82c0.26-0.19,0.62-0.15,0.83,0.08l4.1,4.49
			C31.68,68.73,31.74,68.9,31.73,69.07z M34.3,66.14c-0.1,0.18-0.27,0.3-0.48,0.32c-0.03,0-0.05,0-0.08,0
			c-0.18,0-0.34-0.07-0.46-0.2l-2.56-2.81c-0.15-0.17-0.2-0.4-0.13-0.62c0.07-0.22,0.25-0.38,0.47-0.42l3.77-0.77
			c0.2-0.04,0.41,0.02,0.56,0.16c0.15,0.14,0.22,0.35,0.19,0.55C35.38,63.68,34.95,64.96,34.3,66.14z"/>
	</g>
	<g>
		<path class="st1" d="M35.22,49.71c-2.92-2.92-6.81-4.54-10.95-4.54c-4.14,0-8.02,1.61-10.95,4.54c-2.92,2.92-4.54,6.81-4.54,10.95
			s1.61,8.02,4.54,10.95c2.92,2.92,6.81,4.54,10.95,4.54c4.14,0,8.02-1.61,10.95-4.54c2.92-2.92,4.54-6.81,4.54-10.95
			S38.15,52.64,35.22,49.71z M34.59,56.2c0.16,0.07,0.29,0.19,0.35,0.36c0.18,0.46,0.33,0.93,0.44,1.41
			c0.04,0.17,0.01,0.34-0.08,0.49c-0.09,0.14-0.24,0.25-0.4,0.28l-6.08,1.25c-0.04,0.01-0.08,0.01-0.13,0.01
			c-0.27,0-0.51-0.17-0.6-0.43c-0.1-0.3,0.05-0.63,0.34-0.77l5.67-2.57C34.25,56.13,34.43,56.13,34.59,56.2z M27.92,54.83l0.45-3.96
			c0.02-0.2,0.14-0.38,0.32-0.48c0.18-0.1,0.39-0.1,0.58-0.01c1.25,0.61,2.37,1.44,3.33,2.46c0.14,0.15,0.2,0.35,0.16,0.55
			c-0.04,0.2-0.17,0.37-0.36,0.45l-3.6,1.63c-0.08,0.04-0.17,0.06-0.26,0.06c-0.13,0-0.26-0.04-0.37-0.12
			C27.99,55.28,27.9,55.06,27.92,54.83z M23.09,49.48c0.11-0.13,0.27-0.21,0.44-0.22c0.5-0.03,1-0.03,1.49,0
			c0.17,0.01,0.33,0.09,0.44,0.22c0.11,0.13,0.16,0.3,0.14,0.47l-0.71,6.26c-0.04,0.32-0.3,0.56-0.62,0.56
			c-0.32,0-0.59-0.24-0.62-0.56l-0.71-6.26C22.92,49.78,22.98,49.61,23.09,49.48z M24.27,58.77c1.05,0,1.89,0.85,1.89,1.89
			s-0.85,1.89-1.89,1.89c-1.05,0-1.89-0.85-1.89-1.89S23.23,58.77,24.27,58.77z M15.95,52.84c0.96-1.02,2.08-1.85,3.33-2.46
			c0.18-0.09,0.4-0.08,0.58,0.01c0.18,0.1,0.3,0.28,0.32,0.48l0.45,3.96c0.03,0.22-0.07,0.45-0.25,0.58
			c-0.11,0.08-0.24,0.12-0.37,0.12c-0.09,0-0.18-0.02-0.26-0.06l-3.6-1.63c-0.18-0.08-0.32-0.25-0.36-0.45
			C15.75,53.19,15.81,52.99,15.95,52.84z M13.17,57.96c0.12-0.48,0.26-0.95,0.44-1.41c0.06-0.16,0.19-0.29,0.35-0.36
			c0.16-0.07,0.34-0.06,0.5,0.01l5.67,2.57c0.29,0.13,0.44,0.46,0.34,0.77c-0.09,0.26-0.33,0.43-0.6,0.43c-0.04,0-0.08,0-0.13-0.01
			l-6.08-1.25c-0.17-0.03-0.31-0.14-0.4-0.28C13.16,58.3,13.13,58.12,13.17,57.96z M14.79,66.47c-0.02,0-0.05,0-0.08,0
			c-0.2-0.02-0.38-0.14-0.48-0.32c-0.65-1.18-1.08-2.45-1.27-3.79c-0.03-0.2,0.04-0.41,0.19-0.55c0.15-0.14,0.36-0.2,0.56-0.16
			l3.77,0.77c0.22,0.05,0.4,0.21,0.47,0.42c0.07,0.22,0.02,0.45-0.13,0.62l-2.56,2.81C15.14,66.39,14.97,66.47,14.79,66.47z
			 M18.7,70.43c-0.05,0.01-0.1,0.02-0.15,0.02c-0.12,0-0.23-0.03-0.33-0.1c-0.4-0.25-0.8-0.54-1.17-0.84
			c-0.13-0.11-0.22-0.27-0.23-0.44c-0.01-0.17,0.05-0.34,0.16-0.47l4.1-4.49c0.22-0.24,0.57-0.27,0.83-0.08
			c0.26,0.19,0.34,0.54,0.18,0.82l-3,5.28C19.01,70.28,18.87,70.39,18.7,70.43z M26.69,71.57c-0.09,0.18-0.26,0.32-0.46,0.35
			c-0.64,0.11-1.3,0.17-1.95,0.17c-0.66,0-1.31-0.06-1.95-0.17c-0.2-0.03-0.37-0.17-0.46-0.35c-0.09-0.18-0.08-0.4,0.02-0.58
			l1.84-3.25c0.11-0.2,0.32-0.32,0.55-0.32c0.23,0,0.43,0.12,0.55,0.32L26.66,71C26.77,71.17,26.77,71.39,26.69,71.57z M31.73,69.07
			c-0.01,0.17-0.1,0.33-0.23,0.44c-0.37,0.3-0.76,0.59-1.17,0.84c-0.1,0.06-0.22,0.1-0.33,0.1c-0.05,0-0.1-0.01-0.15-0.02
			c-0.17-0.04-0.31-0.15-0.39-0.3l-3-5.28c-0.16-0.28-0.08-0.63,0.18-0.82c0.26-0.19,0.62-0.15,0.83,0.08l4.1,4.49
			C31.68,68.73,31.74,68.9,31.73,69.07z M34.3,66.14c-0.1,0.18-0.27,0.3-0.48,0.32c-0.03,0-0.05,0-0.08,0
			c-0.18,0-0.34-0.07-0.46-0.2l-2.56-2.81c-0.15-0.17-0.2-0.4-0.13-0.62c0.07-0.22,0.25-0.38,0.47-0.42l3.77-0.77
			c0.2-0.04,0.41,0.02,0.56,0.16c0.15,0.14,0.22,0.35,0.19,0.55C35.38,63.68,34.95,64.96,34.3,66.14z"/>
	</g>
	<g>
		<path d="M35.22,49.71c-2.92-2.92-6.81-4.54-10.95-4.54c-4.14,0-8.02,1.61-10.95,4.54c-2.92,2.92-4.54,6.81-4.54,10.95
			s1.61,8.02,4.54,10.95c2.92,2.92,6.81,4.54,10.95,4.54c4.14,0,8.02-1.61,10.95-4.54c2.92-2.92,4.54-6.81,4.54-10.95
			S38.15,52.64,35.22,49.71z M34.59,56.2c0.16,0.07,0.29,0.19,0.35,0.36c0.18,0.46,0.33,0.93,0.44,1.41
			c0.04,0.17,0.01,0.34-0.08,0.49c-0.09,0.14-0.24,0.25-0.4,0.28l-6.08,1.25c-0.04,0.01-0.08,0.01-0.13,0.01
			c-0.27,0-0.51-0.17-0.6-0.43c-0.1-0.3,0.05-0.63,0.34-0.77l5.67-2.57C34.25,56.13,34.43,56.13,34.59,56.2z M27.92,54.83l0.45-3.96
			c0.02-0.2,0.14-0.38,0.32-0.48c0.18-0.1,0.39-0.1,0.58-0.01c1.25,0.61,2.37,1.44,3.33,2.46c0.14,0.15,0.2,0.35,0.16,0.55
			c-0.04,0.2-0.17,0.37-0.36,0.45l-3.6,1.63c-0.08,0.04-0.17,0.06-0.26,0.06c-0.13,0-0.26-0.04-0.37-0.12
			C27.99,55.28,27.9,55.06,27.92,54.83z M23.09,49.48c0.11-0.13,0.27-0.21,0.44-0.22c0.5-0.03,1-0.03,1.49,0
			c0.17,0.01,0.33,0.09,0.44,0.22c0.11,0.13,0.16,0.3,0.14,0.47l-0.71,6.26c-0.04,0.32-0.3,0.56-0.62,0.56
			c-0.32,0-0.59-0.24-0.62-0.56l-0.71-6.26C22.92,49.78,22.98,49.61,23.09,49.48z M24.27,58.77c1.05,0,1.89,0.85,1.89,1.89
			s-0.85,1.89-1.89,1.89c-1.05,0-1.89-0.85-1.89-1.89S23.23,58.77,24.27,58.77z M15.95,52.84c0.96-1.02,2.08-1.85,3.33-2.46
			c0.18-0.09,0.4-0.08,0.58,0.01c0.18,0.1,0.3,0.28,0.32,0.48l0.45,3.96c0.03,0.22-0.07,0.45-0.25,0.58
			c-0.11,0.08-0.24,0.12-0.37,0.12c-0.09,0-0.18-0.02-0.26-0.06l-3.6-1.63c-0.18-0.08-0.32-0.25-0.36-0.45
			C15.75,53.19,15.81,52.99,15.95,52.84z M13.17,57.96c0.12-0.48,0.26-0.95,0.44-1.41c0.06-0.16,0.19-0.29,0.35-0.36
			c0.16-0.07,0.34-0.06,0.5,0.01l5.67,2.57c0.29,0.13,0.44,0.46,0.34,0.77c-0.09,0.26-0.33,0.43-0.6,0.43c-0.04,0-0.08,0-0.13-0.01
			l-6.08-1.25c-0.17-0.03-0.31-0.14-0.4-0.28C13.16,58.3,13.13,58.12,13.17,57.96z M14.79,66.47c-0.02,0-0.05,0-0.08,0
			c-0.2-0.02-0.38-0.14-0.48-0.32c-0.65-1.18-1.08-2.45-1.27-3.79c-0.03-0.2,0.04-0.41,0.19-0.55c0.15-0.14,0.36-0.2,0.56-0.16
			l3.77,0.77c0.22,0.05,0.4,0.21,0.47,0.42c0.07,0.22,0.02,0.45-0.13,0.62l-2.56,2.81C15.14,66.39,14.97,66.47,14.79,66.47z
			 M18.7,70.43c-0.05,0.01-0.1,0.02-0.15,0.02c-0.12,0-0.23-0.03-0.33-0.1c-0.4-0.25-0.8-0.54-1.17-0.84
			c-0.13-0.11-0.22-0.27-0.23-0.44c-0.01-0.17,0.05-0.34,0.16-0.47l4.1-4.49c0.22-0.24,0.57-0.27,0.83-0.08
			c0.26,0.19,0.34,0.54,0.18,0.82l-3,5.28C19.01,70.28,18.87,70.39,18.7,70.43z M26.69,71.57c-0.09,0.18-0.26,0.32-0.46,0.35
			c-0.64,0.11-1.3,0.17-1.95,0.17c-0.66,0-1.31-0.06-1.95-0.17c-0.2-0.03-0.37-0.17-0.46-0.35c-0.09-0.18-0.08-0.4,0.02-0.58
			l1.84-3.25c0.11-0.2,0.32-0.32,0.55-0.32c0.23,0,0.43,0.12,0.55,0.32L26.66,71C26.77,71.17,26.77,71.39,26.69,71.57z M31.73,69.07
			c-0.01,0.17-0.1,0.33-0.23,0.44c-0.37,0.3-0.76,0.59-1.17,0.84c-0.1,0.06-0.22,0.1-0.33,0.1c-0.05,0-0.1-0.01-0.15-0.02
			c-0.17-0.04-0.31-0.15-0.39-0.3l-3-5.28c-0.16-0.28-0.08-0.63,0.18-0.82c0.26-0.19,0.62-0.15,0.83,0.08l4.1,4.49
			C31.68,68.73,31.74,68.9,31.73,69.07z M34.3,66.14c-0.1,0.18-0.27,0.3-0.48,0.32c-0.03,0-0.05,0-0.08,0
			c-0.18,0-0.34-0.07-0.46-0.2l-2.56-2.81c-0.15-0.17-0.2-0.4-0.13-0.62c0.07-0.22,0.25-0.38,0.47-0.42l3.77-0.77
			c0.2-0.04,0.41,0.02,0.56,0.16c0.15,0.14,0.22,0.35,0.19,0.55C35.38,63.68,34.95,64.96,34.3,66.14z"/>
	</g>
</g>
<g>
	<g>
		<path d="M131.22,49.71c-2.92-2.92-6.81-4.54-10.95-4.54c-4.14,0-8.02,1.61-10.95,4.54c-2.92,2.92-4.54,6.81-4.54,10.95
			s1.61,8.02,4.54,10.95c2.92,2.92,6.81,4.54,10.95,4.54c4.14,0,8.02-1.61,10.95-4.54c2.92-2.92,4.54-6.81,4.54-10.95
			S134.15,52.64,131.22,49.71z M130.59,56.2c0.16,0.07,0.29,0.19,0.35,0.36c0.18,0.46,0.33,0.93,0.44,1.41
			c0.04,0.17,0.01,0.34-0.08,0.49c-0.09,0.14-0.24,0.25-0.4,0.28l-6.08,1.25c-0.04,0.01-0.08,0.01-0.13,0.01
			c-0.27,0-0.51-0.17-0.6-0.43c-0.1-0.3,0.05-0.63,0.34-0.77l5.67-2.57C130.25,56.13,130.43,56.13,130.59,56.2z M123.92,54.83
			l0.45-3.96c0.02-0.2,0.14-0.38,0.32-0.48c0.18-0.1,0.39-0.1,0.58-0.01c1.25,0.61,2.37,1.44,3.33,2.46
			c0.14,0.15,0.2,0.35,0.16,0.55c-0.04,0.2-0.17,0.37-0.36,0.45l-3.6,1.63c-0.08,0.04-0.17,0.06-0.26,0.06
			c-0.13,0-0.26-0.04-0.37-0.12C123.99,55.28,123.9,55.06,123.92,54.83z M119.09,49.48c0.11-0.13,0.27-0.21,0.44-0.22
			c0.5-0.03,1-0.03,1.49,0c0.17,0.01,0.33,0.09,0.44,0.22c0.11,0.13,0.16,0.3,0.14,0.47l-0.71,6.26c-0.04,0.32-0.3,0.56-0.62,0.56
			c-0.32,0-0.59-0.24-0.62-0.56l-0.71-6.26C118.92,49.78,118.98,49.61,119.09,49.48z M120.27,58.77c1.05,0,1.89,0.85,1.89,1.89
			s-0.85,1.89-1.89,1.89c-1.05,0-1.89-0.85-1.89-1.89S119.23,58.77,120.27,58.77z M111.95,52.84c0.96-1.02,2.08-1.85,3.33-2.46
			c0.18-0.09,0.4-0.08,0.58,0.01c0.18,0.1,0.3,0.28,0.32,0.48l0.45,3.96c0.03,0.22-0.07,0.45-0.25,0.58
			c-0.11,0.08-0.24,0.12-0.37,0.12c-0.09,0-0.18-0.02-0.26-0.06l-3.6-1.63c-0.18-0.08-0.32-0.25-0.36-0.45
			C111.75,53.19,111.81,52.99,111.95,52.84z M109.17,57.96c0.12-0.48,0.26-0.95,0.44-1.41c0.06-0.16,0.19-0.29,0.35-0.36
			c0.16-0.07,0.34-0.06,0.5,0.01l5.67,2.57c0.29,0.13,0.44,0.46,0.34,0.77c-0.09,0.26-0.33,0.43-0.6,0.43c-0.04,0-0.08,0-0.13-0.01
			l-6.08-1.25c-0.17-0.03-0.31-0.14-0.4-0.28C109.16,58.3,109.13,58.12,109.17,57.96z M110.79,66.47c-0.02,0-0.05,0-0.08,0
			c-0.2-0.02-0.38-0.14-0.48-0.32c-0.65-1.18-1.08-2.45-1.27-3.79c-0.03-0.2,0.04-0.41,0.19-0.55c0.15-0.14,0.36-0.2,0.56-0.16
			l3.77,0.77c0.22,0.05,0.4,0.21,0.47,0.42c0.07,0.22,0.02,0.45-0.13,0.62l-2.56,2.81C111.14,66.39,110.97,66.47,110.79,66.47z
			 M114.7,70.43c-0.05,0.01-0.1,0.02-0.15,0.02c-0.12,0-0.23-0.03-0.33-0.1c-0.4-0.25-0.8-0.54-1.17-0.84
			c-0.13-0.11-0.22-0.27-0.23-0.44c-0.01-0.17,0.05-0.34,0.16-0.47l4.1-4.49c0.22-0.24,0.57-0.27,0.83-0.08
			c0.26,0.19,0.34,0.54,0.18,0.82l-3,5.28C115.01,70.28,114.87,70.39,114.7,70.43z M122.69,71.57c-0.09,0.18-0.26,0.32-0.46,0.35
			c-0.64,0.11-1.3,0.17-1.95,0.17c-0.66,0-1.31-0.06-1.95-0.17c-0.2-0.03-0.37-0.17-0.46-0.35c-0.09-0.18-0.08-0.4,0.02-0.58
			l1.84-3.25c0.11-0.2,0.32-0.32,0.55-0.32c0.23,0,0.43,0.12,0.55,0.32l1.84,3.25C122.77,71.17,122.77,71.39,122.69,71.57z
			 M127.73,69.07c-0.01,0.17-0.1,0.33-0.23,0.44c-0.37,0.3-0.76,0.59-1.17,0.84c-0.1,0.06-0.22,0.1-0.33,0.1
			c-0.05,0-0.1-0.01-0.15-0.02c-0.17-0.04-0.31-0.15-0.39-0.3l-3-5.28c-0.16-0.28-0.08-0.63,0.18-0.82
			c0.26-0.19,0.62-0.15,0.83,0.08l4.1,4.49C127.68,68.73,127.74,68.9,127.73,69.07z M130.3,66.14c-0.1,0.18-0.27,0.3-0.48,0.32
			c-0.03,0-0.05,0-0.08,0c-0.18,0-0.34-0.07-0.46-0.2l-2.56-2.81c-0.15-0.17-0.2-0.4-0.13-0.62c0.07-0.22,0.25-0.38,0.47-0.42
			l3.77-0.77c0.2-0.04,0.41,0.02,0.56,0.16c0.15,0.14,0.22,0.35,0.19,0.55C131.38,63.68,130.95,64.96,130.3,66.14z"/>
	</g>
	<g>
		<path class="st1" d="M131.22,49.71c-2.92-2.92-6.81-4.54-10.95-4.54c-4.14,0-8.02,1.61-10.95,4.54
			c-2.92,2.92-4.54,6.81-4.54,10.95s1.61,8.02,4.54,10.95c2.92,2.92,6.81,4.54,10.95,4.54c4.14,0,8.02-1.61,10.95-4.54
			c2.92-2.92,4.54-6.81,4.54-10.95S134.15,52.64,131.22,49.71z M130.59,56.2c0.16,0.07,0.29,0.19,0.35,0.36
			c0.18,0.46,0.33,0.93,0.44,1.41c0.04,0.17,0.01,0.34-0.08,0.49c-0.09,0.14-0.24,0.25-0.4,0.28l-6.08,1.25
			c-0.04,0.01-0.08,0.01-0.13,0.01c-0.27,0-0.51-0.17-0.6-0.43c-0.1-0.3,0.05-0.63,0.34-0.77l5.67-2.57
			C130.25,56.13,130.43,56.13,130.59,56.2z M123.92,54.83l0.45-3.96c0.02-0.2,0.14-0.38,0.32-0.48c0.18-0.1,0.39-0.1,0.58-0.01
			c1.25,0.61,2.37,1.44,3.33,2.46c0.14,0.15,0.2,0.35,0.16,0.55c-0.04,0.2-0.17,0.37-0.36,0.45l-3.6,1.63
			c-0.08,0.04-0.17,0.06-0.26,0.06c-0.13,0-0.26-0.04-0.37-0.12C123.99,55.28,123.9,55.06,123.92,54.83z M119.09,49.48
			c0.11-0.13,0.27-0.21,0.44-0.22c0.5-0.03,1-0.03,1.49,0c0.17,0.01,0.33,0.09,0.44,0.22c0.11,0.13,0.16,0.3,0.14,0.47l-0.71,6.26
			c-0.04,0.32-0.3,0.56-0.62,0.56c-0.32,0-0.59-0.24-0.62-0.56l-0.71-6.26C118.92,49.78,118.98,49.61,119.09,49.48z M120.27,58.77
			c1.05,0,1.89,0.85,1.89,1.89s-0.85,1.89-1.89,1.89c-1.05,0-1.89-0.85-1.89-1.89S119.23,58.77,120.27,58.77z M111.95,52.84
			c0.96-1.02,2.08-1.85,3.33-2.46c0.18-0.09,0.4-0.08,0.58,0.01c0.18,0.1,0.3,0.28,0.32,0.48l0.45,3.96
			c0.03,0.22-0.07,0.45-0.25,0.58c-0.11,0.08-0.24,0.12-0.37,0.12c-0.09,0-0.18-0.02-0.26-0.06l-3.6-1.63
			c-0.18-0.08-0.32-0.25-0.36-0.45C111.75,53.19,111.81,52.99,111.95,52.84z M109.17,57.96c0.12-0.48,0.26-0.95,0.44-1.41
			c0.06-0.16,0.19-0.29,0.35-0.36c0.16-0.07,0.34-0.06,0.5,0.01l5.67,2.57c0.29,0.13,0.44,0.46,0.34,0.77
			c-0.09,0.26-0.33,0.43-0.6,0.43c-0.04,0-0.08,0-0.13-0.01l-6.08-1.25c-0.17-0.03-0.31-0.14-0.4-0.28
			C109.16,58.3,109.13,58.12,109.17,57.96z M110.79,66.47c-0.02,0-0.05,0-0.08,0c-0.2-0.02-0.38-0.14-0.48-0.32
			c-0.65-1.18-1.08-2.45-1.27-3.79c-0.03-0.2,0.04-0.41,0.19-0.55c0.15-0.14,0.36-0.2,0.56-0.16l3.77,0.77
			c0.22,0.05,0.4,0.21,0.47,0.42c0.07,0.22,0.02,0.45-0.13,0.62l-2.56,2.81C111.14,66.39,110.97,66.47,110.79,66.47z M114.7,70.43
			c-0.05,0.01-0.1,0.02-0.15,0.02c-0.12,0-0.23-0.03-0.33-0.1c-0.4-0.25-0.8-0.54-1.17-0.84c-0.13-0.11-0.22-0.27-0.23-0.44
			c-0.01-0.17,0.05-0.34,0.16-0.47l4.1-4.49c0.22-0.24,0.57-0.27,0.83-0.08c0.26,0.19,0.34,0.54,0.18,0.82l-3,5.28
			C115.01,70.28,114.87,70.39,114.7,70.43z M122.69,71.57c-0.09,0.18-0.26,0.32-0.46,0.35c-0.64,0.11-1.3,0.17-1.95,0.17
			c-0.66,0-1.31-0.06-1.95-0.17c-0.2-0.03-0.37-0.17-0.46-0.35c-0.09-0.18-0.08-0.4,0.02-0.58l1.84-3.25
			c0.11-0.2,0.32-0.32,0.55-0.32c0.23,0,0.43,0.12,0.55,0.32l1.84,3.25C122.77,71.17,122.77,71.39,122.69,71.57z M127.73,69.07
			c-0.01,0.17-0.1,0.33-0.23,0.44c-0.37,0.3-0.76,0.59-1.17,0.84c-0.1,0.06-0.22,0.1-0.33,0.1c-0.05,0-0.1-0.01-0.15-0.02
			c-0.17-0.04-0.31-0.15-0.39-0.3l-3-5.28c-0.16-0.28-0.08-0.63,0.18-0.82c0.26-0.19,0.62-0.15,0.83,0.08l4.1,4.49
			C127.68,68.73,127.74,68.9,127.73,69.07z M130.3,66.14c-0.1,0.18-0.27,0.3-0.48,0.32c-0.03,0-0.05,0-0.08,0
			c-0.18,0-0.34-0.07-0.46-0.2l-2.56-2.81c-0.15-0.17-0.2-0.4-0.13-0.62c0.07-0.22,0.25-0.38,0.47-0.42l3.77-0.77
			c0.2-0.04,0.41,0.02,0.56,0.16c0.15,0.14,0.22,0.35,0.19,0.55C131.38,63.68,130.95,64.96,130.3,66.14z"/>
	</g>
	<g>
		<path d="M131.22,49.71c-2.92-2.92-6.81-4.54-10.95-4.54c-4.14,0-8.02,1.61-10.95,4.54c-2.92,2.92-4.54,6.81-4.54,10.95
			s1.61,8.02,4.54,10.95c2.92,2.92,6.81,4.54,10.95,4.54c4.14,0,8.02-1.61,10.95-4.54c2.92-2.92,4.54-6.81,4.54-10.95
			S134.15,52.64,131.22,49.71z M130.59,56.2c0.16,0.07,0.29,0.19,0.35,0.36c0.18,0.46,0.33,0.93,0.44,1.41
			c0.04,0.17,0.01,0.34-0.08,0.49c-0.09,0.14-0.24,0.25-0.4,0.28l-6.08,1.25c-0.04,0.01-0.08,0.01-0.13,0.01
			c-0.27,0-0.51-0.17-0.6-0.43c-0.1-0.3,0.05-0.63,0.34-0.77l5.67-2.57C130.25,56.13,130.43,56.13,130.59,56.2z M123.92,54.83
			l0.45-3.96c0.02-0.2,0.14-0.38,0.32-0.48c0.18-0.1,0.39-0.1,0.58-0.01c1.25,0.61,2.37,1.44,3.33,2.46
			c0.14,0.15,0.2,0.35,0.16,0.55c-0.04,0.2-0.17,0.37-0.36,0.45l-3.6,1.63c-0.08,0.04-0.17,0.06-0.26,0.06
			c-0.13,0-0.26-0.04-0.37-0.12C123.99,55.28,123.9,55.06,123.92,54.83z M119.09,49.48c0.11-0.13,0.27-0.21,0.44-0.22
			c0.5-0.03,1-0.03,1.49,0c0.17,0.01,0.33,0.09,0.44,0.22c0.11,0.13,0.16,0.3,0.14,0.47l-0.71,6.26c-0.04,0.32-0.3,0.56-0.62,0.56
			c-0.32,0-0.59-0.24-0.62-0.56l-0.71-6.26C118.92,49.78,118.98,49.61,119.09,49.48z M120.27,58.77c1.05,0,1.89,0.85,1.89,1.89
			s-0.85,1.89-1.89,1.89c-1.05,0-1.89-0.85-1.89-1.89S119.23,58.77,120.27,58.77z M111.95,52.84c0.96-1.02,2.08-1.85,3.33-2.46
			c0.18-0.09,0.4-0.08,0.58,0.01c0.18,0.1,0.3,0.28,0.32,0.48l0.45,3.96c0.03,0.22-0.07,0.45-0.25,0.58
			c-0.11,0.08-0.24,0.12-0.37,0.12c-0.09,0-0.18-0.02-0.26-0.06l-3.6-1.63c-0.18-0.08-0.32-0.25-0.36-0.45
			C111.75,53.19,111.81,52.99,111.95,52.84z M109.17,57.96c0.12-0.48,0.26-0.95,0.44-1.41c0.06-0.16,0.19-0.29,0.35-0.36
			c0.16-0.07,0.34-0.06,0.5,0.01l5.67,2.57c0.29,0.13,0.44,0.46,0.34,0.77c-0.09,0.26-0.33,0.43-0.6,0.43c-0.04,0-0.08,0-0.13-0.01
			l-6.08-1.25c-0.17-0.03-0.31-0.14-0.4-0.28C109.16,58.3,109.13,58.12,109.17,57.96z M110.79,66.47c-0.02,0-0.05,0-0.08,0
			c-0.2-0.02-0.38-0.14-0.48-0.32c-0.65-1.18-1.08-2.45-1.27-3.79c-0.03-0.2,0.04-0.41,0.19-0.55c0.15-0.14,0.36-0.2,0.56-0.16
			l3.77,0.77c0.22,0.05,0.4,0.21,0.47,0.42c0.07,0.22,0.02,0.45-0.13,0.62l-2.56,2.81C111.14,66.39,110.97,66.47,110.79,66.47z
			 M114.7,70.43c-0.05,0.01-0.1,0.02-0.15,0.02c-0.12,0-0.23-0.03-0.33-0.1c-0.4-0.25-0.8-0.54-1.17-0.84
			c-0.13-0.11-0.22-0.27-0.23-0.44c-0.01-0.17,0.05-0.34,0.16-0.47l4.1-4.49c0.22-0.24,0.57-0.27,0.83-0.08
			c0.26,0.19,0.34,0.54,0.18,0.82l-3,5.28C115.01,70.28,114.87,70.39,114.7,70.43z M122.69,71.57c-0.09,0.18-0.26,0.32-0.46,0.35
			c-0.64,0.11-1.3,0.17-1.95,0.17c-0.66,0-1.31-0.06-1.95-0.17c-0.2-0.03-0.37-0.17-0.46-0.35c-0.09-0.18-0.08-0.4,0.02-0.58
			l1.84-3.25c0.11-0.2,0.32-0.32,0.55-0.32c0.23,0,0.43,0.12,0.55,0.32l1.84,3.25C122.77,71.17,122.77,71.39,122.69,71.57z
			 M127.73,69.07c-0.01,0.17-0.1,0.33-0.23,0.44c-0.37,0.3-0.76,0.59-1.17,0.84c-0.1,0.06-0.22,0.1-0.33,0.1
			c-0.05,0-0.1-0.01-0.15-0.02c-0.17-0.04-0.31-0.15-0.39-0.3l-3-5.28c-0.16-0.28-0.08-0.63,0.18-0.82
			c0.26-0.19,0.62-0.15,0.83,0.08l4.1,4.49C127.68,68.73,127.74,68.9,127.73,69.07z M130.3,66.14c-0.1,0.18-0.27,0.3-0.48,0.32
			c-0.03,0-0.05,0-0.08,0c-0.18,0-0.34-0.07-0.46-0.2l-2.56-2.81c-0.15-0.17-0.2-0.4-0.13-0.62c0.07-0.22,0.25-0.38,0.47-0.42
			l3.77-0.77c0.2-0.04,0.41,0.02,0.56,0.16c0.15,0.14,0.22,0.35,0.19,0.55C131.38,63.68,130.95,64.96,130.3,66.14z"/>
	</g>
</g>
</svg>
