<svg xmlns="http://www.w3.org/2000/svg" viewBox="0 0 142.54 72.47"><defs><style>.a{fill:none;stroke:#fff;stroke-width:3px;}.b{fill:#cf0;}.c{fill:#ff449e;}</style></defs><path d="M131.22,44.71a15.48,15.48,0,1,0,4.54,10.95A15.38,15.38,0,0,0,131.22,44.71Zm-.63,6.49a.6.6,0,0,1,.35.35,11.51,11.51,0,0,1,.44,1.41.62.62,0,0,1-.08.48.6.6,0,0,1-.4.28L124.81,55h-.13a.63.63,0,0,1-.25-1.2l5.66-2.58A.62.62,0,0,1,130.59,51.2Zm-6.67-1.37.45-3.95a.59.59,0,0,1,.32-.48.63.63,0,0,1,.58,0,11.47,11.47,0,0,1,3.33,2.46.62.62,0,0,1,.16.55.61.61,0,0,1-.36.45l-3.59,1.63a.62.62,0,0,1-.26.06.63.63,0,0,1-.63-.7Zm-4.83-5.35a.63.63,0,0,1,.44-.22,9.27,9.27,0,0,1,1.49,0,.63.63,0,0,1,.44.22.61.61,0,0,1,.14.47l-.7,6.27a.64.64,0,0,1-.63.55.63.63,0,0,1-.62-.55L118.94,45A.62.62,0,0,1,119.09,44.48Zm1.18,9.29a1.89,1.89,0,1,1-1.89,1.89A1.9,1.9,0,0,1,120.27,53.77ZM112,47.84a11.34,11.34,0,0,1,3.33-2.46.63.63,0,0,1,.58,0,.59.59,0,0,1,.32.48l.44,3.95a.62.62,0,0,1-.25.58.63.63,0,0,1-.37.12.58.58,0,0,1-.26-.06l-3.6-1.63a.63.63,0,0,1-.19-1ZM109.17,53a10,10,0,0,1,.44-1.41.6.6,0,0,1,.35-.35.6.6,0,0,1,.49,0l5.67,2.58a.63.63,0,0,1-.26,1.2h-.12l-6.09-1.25a.58.58,0,0,1-.4-.28A.62.62,0,0,1,109.17,53Zm1.62,8.51h-.07a.62.62,0,0,1-.48-.32A11.54,11.54,0,0,1,109,57.35a.63.63,0,0,1,.19-.55.64.64,0,0,1,.56-.16l3.77.78a.61.61,0,0,1,.47.42.6.6,0,0,1-.14.61l-2.56,2.81A.64.64,0,0,1,110.79,61.47Zm3.91,4-.15,0a.64.64,0,0,1-.33-.1,10.83,10.83,0,0,1-1.17-.84.6.6,0,0,1-.23-.44.63.63,0,0,1,.16-.47l4.1-4.49a.64.64,0,0,1,.84-.08.62.62,0,0,1,.17.82l-3,5.28A.64.64,0,0,1,114.7,65.43Zm8,1.14a.65.65,0,0,1-.46.36,12,12,0,0,1-3.91,0,.65.65,0,0,1-.46-.36.61.61,0,0,1,0-.57l1.85-3.26a.63.63,0,0,1,1.09,0L122.66,66A.61.61,0,0,1,122.69,66.57Zm5-2.5a.64.64,0,0,1-.23.44,10.83,10.83,0,0,1-1.17.84.67.67,0,0,1-.33.1l-.16,0a.65.65,0,0,1-.39-.3l-3-5.28a.64.64,0,0,1,.18-.82.63.63,0,0,1,.83.08l4.11,4.49A.67.67,0,0,1,127.73,64.07Zm2.57-2.93a.59.59,0,0,1-.47.32h-.08a.64.64,0,0,1-.46-.21l-2.57-2.8a.64.64,0,0,1-.13-.62.61.61,0,0,1,.47-.42l3.77-.78a.64.64,0,0,1,.56.16.63.63,0,0,1,.19.55A11.33,11.33,0,0,1,130.3,61.14Z" transform="translate(-0.49 -0.18)"/><path class="a" d="M131.22,44.71a15.48,15.48,0,1,0,4.54,10.95A15.38,15.38,0,0,0,131.22,44.71Zm-.63,6.49a.6.6,0,0,1,.35.35,11.51,11.51,0,0,1,.44,1.41.62.62,0,0,1-.08.48.6.6,0,0,1-.4.28L124.81,55h-.13a.63.63,0,0,1-.25-1.2l5.66-2.58A.62.62,0,0,1,130.59,51.2Zm-6.67-1.37.45-3.95a.59.59,0,0,1,.32-.48.63.63,0,0,1,.58,0,11.47,11.47,0,0,1,3.33,2.46.62.62,0,0,1,.16.55.61.61,0,0,1-.36.45l-3.59,1.63a.62.62,0,0,1-.26.06.63.63,0,0,1-.63-.7Zm-4.83-5.35a.63.63,0,0,1,.44-.22,9.27,9.27,0,0,1,1.49,0,.63.63,0,0,1,.44.22.61.61,0,0,1,.14.47l-.7,6.27a.64.64,0,0,1-.63.55.63.63,0,0,1-.62-.55L118.94,45A.62.62,0,0,1,119.09,44.48Zm1.18,9.29a1.89,1.89,0,1,1-1.89,1.89A1.9,1.9,0,0,1,120.27,53.77ZM112,47.84a11.34,11.34,0,0,1,3.33-2.46.63.63,0,0,1,.58,0,.59.59,0,0,1,.32.48l.44,3.95a.62.62,0,0,1-.25.58.63.63,0,0,1-.37.12.58.58,0,0,1-.26-.06l-3.6-1.63a.63.63,0,0,1-.19-1ZM109.17,53a10,10,0,0,1,.44-1.41.6.6,0,0,1,.35-.35.6.6,0,0,1,.49,0l5.67,2.58a.63.63,0,0,1-.26,1.2h-.12l-6.09-1.25a.58.58,0,0,1-.4-.28A.62.62,0,0,1,109.17,53Zm1.62,8.51h-.07a.62.62,0,0,1-.48-.32A11.54,11.54,0,0,1,109,57.35a.63.63,0,0,1,.19-.55.64.64,0,0,1,.56-.16l3.77.78a.61.61,0,0,1,.47.42.6.6,0,0,1-.14.61l-2.56,2.81A.64.64,0,0,1,110.79,61.47Zm3.91,4-.15,0a.64.64,0,0,1-.33-.1,10.83,10.83,0,0,1-1.17-.84.6.6,0,0,1-.23-.44.63.63,0,0,1,.16-.47l4.1-4.49a.64.64,0,0,1,.84-.08.62.62,0,0,1,.17.82l-3,5.28A.64.64,0,0,1,114.7,65.43Zm8,1.14a.65.65,0,0,1-.46.36,12,12,0,0,1-3.91,0,.65.65,0,0,1-.46-.36.61.61,0,0,1,0-.57l1.85-3.26a.63.63,0,0,1,1.09,0L122.66,66A.61.61,0,0,1,122.69,66.57Zm5-2.5a.64.64,0,0,1-.23.44,10.83,10.83,0,0,1-1.17.84.67.67,0,0,1-.33.1l-.16,0a.65.65,0,0,1-.39-.3l-3-5.28a.64.64,0,0,1,.18-.82.63.63,0,0,1,.83.08l4.11,4.49A.67.67,0,0,1,127.73,64.07Zm2.57-2.93a.59.59,0,0,1-.47.32h-.08a.64.64,0,0,1-.46-.21l-2.57-2.8a.64.64,0,0,1-.13-.62.61.61,0,0,1,.47-.42l3.77-.78a.64.64,0,0,1,.56.16.63.63,0,0,1,.19.55A11.33,11.33,0,0,1,130.3,61.14Z" transform="translate(-0.49 -0.18)"/><path d="M131.22,44.71a15.48,15.48,0,1,0,4.54,10.95A15.38,15.38,0,0,0,131.22,44.71Zm-.63,6.49a.6.6,0,0,1,.35.35,11.51,11.51,0,0,1,.44,1.41.62.62,0,0,1-.08.48.6.6,0,0,1-.4.28L124.81,55h-.13a.63.63,0,0,1-.25-1.2l5.66-2.58A.62.62,0,0,1,130.59,51.2Zm-6.67-1.37.45-3.95a.59.59,0,0,1,.32-.48.63.63,0,0,1,.58,0,11.47,11.47,0,0,1,3.33,2.46.62.62,0,0,1,.16.55.61.61,0,0,1-.36.45l-3.59,1.63a.62.62,0,0,1-.26.06.63.63,0,0,1-.63-.7Zm-4.83-5.35a.63.63,0,0,1,.44-.22,9.27,9.27,0,0,1,1.49,0,.63.63,0,0,1,.44.22.61.61,0,0,1,.14.47l-.7,6.27a.64.64,0,0,1-.63.55.63.63,0,0,1-.62-.55L118.94,45A.62.62,0,0,1,119.09,44.48Zm1.18,9.29a1.89,1.89,0,1,1-1.89,1.89A1.9,1.9,0,0,1,120.27,53.77ZM112,47.84a11.34,11.34,0,0,1,3.33-2.46.63.63,0,0,1,.58,0,.59.59,0,0,1,.32.48l.44,3.95a.62.62,0,0,1-.25.58.63.63,0,0,1-.37.12.58.58,0,0,1-.26-.06l-3.6-1.63a.63.63,0,0,1-.19-1ZM109.17,53a10,10,0,0,1,.44-1.41.6.6,0,0,1,.35-.35.6.6,0,0,1,.49,0l5.67,2.58a.63.63,0,0,1-.26,1.2h-.12l-6.09-1.25a.58.58,0,0,1-.4-.28A.62.62,0,0,1,109.17,53Zm1.62,8.51h-.07a.62.62,0,0,1-.48-.32A11.54,11.54,0,0,1,109,57.35a.63.63,0,0,1,.19-.55.64.64,0,0,1,.56-.16l3.77.78a.61.61,0,0,1,.47.42.6.6,0,0,1-.14.61l-2.56,2.81A.64.64,0,0,1,110.79,61.47Zm3.91,4-.15,0a.64.64,0,0,1-.33-.1,10.83,10.83,0,0,1-1.17-.84.6.6,0,0,1-.23-.44.63.63,0,0,1,.16-.47l4.1-4.49a.64.64,0,0,1,.84-.08.62.62,0,0,1,.17.82l-3,5.28A.64.64,0,0,1,114.7,65.43Zm8,1.14a.65.65,0,0,1-.46.36,12,12,0,0,1-3.91,0,.65.65,0,0,1-.46-.36.61.61,0,0,1,0-.57l1.85-3.26a.63.63,0,0,1,1.09,0L122.66,66A.61.61,0,0,1,122.69,66.57Zm5-2.5a.64.64,0,0,1-.23.44,10.83,10.83,0,0,1-1.17.84.67.67,0,0,1-.33.1l-.16,0a.65.65,0,0,1-.39-.3l-3-5.28a.64.64,0,0,1,.18-.82.63.63,0,0,1,.83.08l4.11,4.49A.67.67,0,0,1,127.73,64.07Zm2.57-2.93a.59.59,0,0,1-.47.32h-.08a.64.64,0,0,1-.46-.21l-2.57-2.8a.64.64,0,0,1-.13-.62.61.61,0,0,1,.47-.42l3.77-.78a.64.64,0,0,1,.56.16.63.63,0,0,1,.19.55A11.33,11.33,0,0,1,130.3,61.14Z" transform="translate(-0.49 -0.18)"/><polygon class="b" points="102.61 2.36 102.61 45.36 142.54 45.36 142.54 2.36 125.99 2.36 125.99 36.36 119.99 36.36 119.99 2.36 102.61 2.36"/><polygon class="b" points="66.99 15.36 66.99 45.36 95.46 45.36 95.46 39.52 78.99 39.36 78.99 33.36 90.99 33.36 90.99 27.36 78.99 27.36 78.99 21.36 94.99 21.36 95.01 15.36 66.99 15.36"/><polygon class="b" points="2.99 2.36 19.32 2.36 19.32 23.75 25.44 23.75 25.44 15.59 36.99 15.36 36.99 23.75 42.91 23.75 42.91 2.36 59.8 2.36 59.8 36.72 53.87 36.72 53.99 45.36 36.99 45.36 36.99 32.36 25.99 32.36 26.03 45.36 8.59 45.36 8.59 36.25 2.99 36.36 2.99 2.36"/><polygon class="c" points="99.63 0 99.63 43 139.55 43 139.55 0 123 0 123 34 117 34 117 0 99.63 0"/><polygon class="c" points="64 13 64 43 92.47 43 92.47 37.16 76 37 76 31 88 31 88 25 76 25 76 19 92 19 92.03 13 64 13"/><polygon class="c" points="0 0 16.33 0 16.33 21.4 22.45 21.4 22.45 13.24 34 13 34 21.4 39.92 21.4 39.92 0 56.81 0 56.81 34.37 50.88 34.37 51 43 34 43 34 30 23 30 23.04 43 5.6 43 5.6 33.9 0 34 0 0"/><path d="M35.22,44.71a15.48,15.48,0,1,0,4.54,10.95A15.38,15.38,0,0,0,35.22,44.71Zm-.63,6.49a.6.6,0,0,1,.35.35A11.51,11.51,0,0,1,35.38,53a.62.62,0,0,1-.08.48.6.6,0,0,1-.4.28L28.81,55h-.13a.63.63,0,0,1-.25-1.2l5.66-2.58A.62.62,0,0,1,34.59,51.2Zm-6.67-1.37.45-3.95a.59.59,0,0,1,.32-.48.63.63,0,0,1,.58,0,11.47,11.47,0,0,1,3.33,2.46.62.62,0,0,1,.16.55.61.61,0,0,1-.36.45l-3.59,1.63a.62.62,0,0,1-.26.06.63.63,0,0,1-.63-.7Zm-4.83-5.35a.63.63,0,0,1,.44-.22,9.27,9.27,0,0,1,1.49,0,.63.63,0,0,1,.44.22.61.61,0,0,1,.14.47l-.7,6.27a.64.64,0,0,1-.63.55.63.63,0,0,1-.62-.55L22.94,45A.62.62,0,0,1,23.09,44.48Zm1.18,9.29a1.89,1.89,0,1,1-1.89,1.89A1.9,1.9,0,0,1,24.27,53.77ZM16,47.84a11.34,11.34,0,0,1,3.33-2.46.63.63,0,0,1,.58,0,.59.59,0,0,1,.32.48l.44,3.95a.62.62,0,0,1-.25.58.63.63,0,0,1-.37.12.58.58,0,0,1-.26-.06l-3.6-1.63a.63.63,0,0,1-.19-1ZM13.17,53a10,10,0,0,1,.44-1.41A.6.6,0,0,1,14,51.2a.6.6,0,0,1,.49,0l5.67,2.58a.63.63,0,0,1-.26,1.2h-.12l-6.09-1.25a.58.58,0,0,1-.4-.28A.62.62,0,0,1,13.17,53Zm1.62,8.51h-.07a.62.62,0,0,1-.48-.32A11.54,11.54,0,0,1,13,57.35a.63.63,0,0,1,.19-.55.64.64,0,0,1,.56-.16l3.77.78a.61.61,0,0,1,.47.42.6.6,0,0,1-.14.61l-2.56,2.81A.64.64,0,0,1,14.79,61.47Zm3.91,4-.15,0a.64.64,0,0,1-.33-.1,10.83,10.83,0,0,1-1.17-.84.6.6,0,0,1-.23-.44A.63.63,0,0,1,17,63.6l4.1-4.49a.64.64,0,0,1,.84-.08.62.62,0,0,1,.17.82l-3,5.28A.64.64,0,0,1,18.7,65.43Zm8,1.14a.65.65,0,0,1-.46.36,12,12,0,0,1-3.91,0,.65.65,0,0,1-.46-.36.61.61,0,0,1,0-.57l1.85-3.26a.63.63,0,0,1,1.09,0L26.66,66A.61.61,0,0,1,26.69,66.57Zm5-2.5a.64.64,0,0,1-.23.44,10.83,10.83,0,0,1-1.17.84.67.67,0,0,1-.33.1l-.16,0a.65.65,0,0,1-.39-.3l-3-5.28a.64.64,0,0,1,.18-.82.63.63,0,0,1,.83.08l4.11,4.49A.67.67,0,0,1,31.73,64.07Zm2.57-2.93a.59.59,0,0,1-.47.32h-.08a.64.64,0,0,1-.46-.21l-2.57-2.8a.64.64,0,0,1-.13-.62.61.61,0,0,1,.47-.42l3.77-.78a.64.64,0,0,1,.56.16.63.63,0,0,1,.19.55A11.33,11.33,0,0,1,34.3,61.14Z" transform="translate(-0.49 -0.18)"/><path class="a" d="M35.22,44.71a15.48,15.48,0,1,0,4.54,10.95A15.38,15.38,0,0,0,35.22,44.71Zm-.63,6.49a.6.6,0,0,1,.35.35A11.51,11.51,0,0,1,35.38,53a.62.62,0,0,1-.08.48.6.6,0,0,1-.4.28L28.81,55h-.13a.63.63,0,0,1-.25-1.2l5.66-2.58A.62.62,0,0,1,34.59,51.2Zm-6.67-1.37.45-3.95a.59.59,0,0,1,.32-.48.63.63,0,0,1,.58,0,11.47,11.47,0,0,1,3.33,2.46.62.62,0,0,1,.16.55.61.61,0,0,1-.36.45l-3.59,1.63a.62.62,0,0,1-.26.06.63.63,0,0,1-.63-.7Zm-4.83-5.35a.63.63,0,0,1,.44-.22,9.27,9.27,0,0,1,1.49,0,.63.63,0,0,1,.44.22.61.61,0,0,1,.14.47l-.7,6.27a.64.64,0,0,1-.63.55.63.63,0,0,1-.62-.55L22.94,45A.62.62,0,0,1,23.09,44.48Zm1.18,9.29a1.89,1.89,0,1,1-1.89,1.89A1.9,1.9,0,0,1,24.27,53.77ZM16,47.84a11.34,11.34,0,0,1,3.33-2.46.63.63,0,0,1,.58,0,.59.59,0,0,1,.32.48l.44,3.95a.62.62,0,0,1-.25.58.63.63,0,0,1-.37.12.58.58,0,0,1-.26-.06l-3.6-1.63a.63.63,0,0,1-.19-1ZM13.17,53a10,10,0,0,1,.44-1.41A.6.6,0,0,1,14,51.2a.6.6,0,0,1,.49,0l5.67,2.58a.63.63,0,0,1-.26,1.2h-.12l-6.09-1.25a.58.58,0,0,1-.4-.28A.62.62,0,0,1,13.17,53Zm1.62,8.51h-.07a.62.62,0,0,1-.48-.32A11.54,11.54,0,0,1,13,57.35a.63.63,0,0,1,.19-.55.64.64,0,0,1,.56-.16l3.77.78a.61.61,0,0,1,.47.42.6.6,0,0,1-.14.61l-2.56,2.81A.64.64,0,0,1,14.79,61.47Zm3.91,4-.15,0a.64.64,0,0,1-.33-.1,10.83,10.83,0,0,1-1.17-.84.6.6,0,0,1-.23-.44A.63.63,0,0,1,17,63.6l4.1-4.49a.64.64,0,0,1,.84-.08.62.62,0,0,1,.17.82l-3,5.28A.64.64,0,0,1,18.7,65.43Zm8,1.14a.65.65,0,0,1-.46.36,12,12,0,0,1-3.91,0,.65.65,0,0,1-.46-.36.61.61,0,0,1,0-.57l1.85-3.26a.63.63,0,0,1,1.09,0L26.66,66A.61.61,0,0,1,26.69,66.57Zm5-2.5a.64.64,0,0,1-.23.44,10.83,10.83,0,0,1-1.17.84.67.67,0,0,1-.33.1l-.16,0a.65.65,0,0,1-.39-.3l-3-5.28a.64.64,0,0,1,.18-.82.63.63,0,0,1,.83.08l4.11,4.49A.67.67,0,0,1,31.73,64.07Zm2.57-2.93a.59.59,0,0,1-.47.32h-.08a.64.64,0,0,1-.46-.21l-2.57-2.8a.64.64,0,0,1-.13-.62.61.61,0,0,1,.47-.42l3.77-.78a.64.64,0,0,1,.56.16.63.63,0,0,1,.19.55A11.33,11.33,0,0,1,34.3,61.14Z" transform="translate(-0.49 -0.18)"/><path d="M35.22,44.71a15.48,15.48,0,1,0,4.54,10.95A15.38,15.38,0,0,0,35.22,44.71Zm-.63,6.49a.6.6,0,0,1,.35.35A11.51,11.51,0,0,1,35.38,53a.62.62,0,0,1-.08.48.6.6,0,0,1-.4.28L28.81,55h-.13a.63.63,0,0,1-.25-1.2l5.66-2.58A.62.62,0,0,1,34.59,51.2Zm-6.67-1.37.45-3.95a.59.59,0,0,1,.32-.48.63.63,0,0,1,.58,0,11.47,11.47,0,0,1,3.33,2.46.62.62,0,0,1,.16.55.61.61,0,0,1-.36.45l-3.59,1.63a.62.62,0,0,1-.26.06.63.63,0,0,1-.63-.7Zm-4.83-5.35a.63.63,0,0,1,.44-.22,9.27,9.27,0,0,1,1.49,0,.63.63,0,0,1,.44.22.61.61,0,0,1,.14.47l-.7,6.27a.64.64,0,0,1-.63.55.63.63,0,0,1-.62-.55L22.94,45A.62.62,0,0,1,23.09,44.48Zm1.18,9.29a1.89,1.89,0,1,1-1.89,1.89A1.9,1.9,0,0,1,24.27,53.77ZM16,47.84a11.34,11.34,0,0,1,3.33-2.46.63.63,0,0,1,.58,0,.59.59,0,0,1,.32.48l.44,3.95a.62.62,0,0,1-.25.58.63.63,0,0,1-.37.12.58.58,0,0,1-.26-.06l-3.6-1.63a.63.63,0,0,1-.19-1ZM13.17,53a10,10,0,0,1,.44-1.41A.6.6,0,0,1,14,51.2a.6.6,0,0,1,.49,0l5.67,2.58a.63.63,0,0,1-.26,1.2h-.12l-6.09-1.25a.58.58,0,0,1-.4-.28A.62.62,0,0,1,13.17,53Zm1.62,8.51h-.07a.62.62,0,0,1-.48-.32A11.54,11.54,0,0,1,13,57.35a.63.63,0,0,1,.19-.55.64.64,0,0,1,.56-.16l3.77.78a.61.61,0,0,1,.47.42.6.6,0,0,1-.14.61l-2.56,2.81A.64.64,0,0,1,14.79,61.47Zm3.91,4-.15,0a.64.64,0,0,1-.33-.1,10.83,10.83,0,0,1-1.17-.84.6.6,0,0,1-.23-.44A.63.63,0,0,1,17,63.6l4.1-4.49a.64.64,0,0,1,.84-.08.62.62,0,0,1,.17.82l-3,5.28A.64.64,0,0,1,18.7,65.43Zm8,1.14a.65.65,0,0,1-.46.36,12,12,0,0,1-3.91,0,.65.65,0,0,1-.46-.36.61.61,0,0,1,0-.57l1.85-3.26a.63.63,0,0,1,1.09,0L26.66,66A.61.61,0,0,1,26.69,66.57Zm5-2.5a.64.64,0,0,1-.23.44,10.83,10.83,0,0,1-1.17.84.67.67,0,0,1-.33.1l-.16,0a.65.65,0,0,1-.39-.3l-3-5.28a.64.64,0,0,1,.18-.82.63.63,0,0,1,.83.08l4.11,4.49A.67.67,0,0,1,31.73,64.07Zm2.57-2.93a.59.59,0,0,1-.47.32h-.08a.64.64,0,0,1-.46-.21l-2.57-2.8a.64.64,0,0,1-.13-.62.61.61,0,0,1,.47-.42l3.77-.78a.64.64,0,0,1,.56.16.63.63,0,0,1,.19.55A11.33,11.33,0,0,1,34.3,61.14Z" transform="translate(-0.49 -0.18)"/></svg>