<svg xmlns="http://www.w3.org/2000/svg" viewBox="0 0 144.55 75.97"><defs><style>.a,.b{fill:none;stroke-width:5px;}.a{stroke:#fff;}.b{stroke:#cf0;stroke-miterlimit:10;}.c{fill:#ff449e;}</style></defs><path d="M133.24,47A15.49,15.49,0,1,0,137.77,58,15.39,15.39,0,0,0,133.24,47Zm-.64,6.48a.6.6,0,0,1,.35.35,10,10,0,0,1,.44,1.41.58.58,0,0,1-.08.48.58.58,0,0,1-.4.28l-6.08,1.25h-.13a.63.63,0,0,1-.26-1.2l5.67-2.57A.6.6,0,0,1,132.6,53.52Zm-6.66-1.37.44-3.95a.68.68,0,0,1,.32-.48.66.66,0,0,1,.58,0,11.39,11.39,0,0,1,3.33,2.46.63.63,0,0,1-.19,1l-3.6,1.64a.75.75,0,0,1-.26.05.63.63,0,0,1-.37-.12A.62.62,0,0,1,125.94,52.15ZM121.1,46.8a.63.63,0,0,1,.44-.22,12.34,12.34,0,0,1,1.49,0,.63.63,0,0,1,.45.22.64.64,0,0,1,.14.48l-.71,6.26a.62.62,0,0,1-.62.56.64.64,0,0,1-.63-.56l-.7-6.26A.64.64,0,0,1,121.1,46.8Zm1.19,9.29A1.9,1.9,0,1,1,120.4,58,1.89,1.89,0,0,1,122.29,56.09ZM114,50.16a11.66,11.66,0,0,1,3.33-2.46.66.66,0,0,1,.58,0,.62.62,0,0,1,.32.48l.45,3.95a.63.63,0,0,1-.63.7.85.85,0,0,1-.26-.05l-3.59-1.64a.61.61,0,0,1-.36-.45A.62.62,0,0,1,114,50.16Zm-2.78,5.12a13.56,13.56,0,0,1,.44-1.41.63.63,0,0,1,.35-.35.62.62,0,0,1,.5,0l5.67,2.57a.63.63,0,0,1-.26,1.2h-.13L111.67,56a.6.6,0,0,1-.41-.28A.62.62,0,0,1,111.18,55.28Zm1.63,8.51h-.08a.61.61,0,0,1-.47-.32A11.26,11.26,0,0,1,111,59.67a.61.61,0,0,1,.19-.54.59.59,0,0,1,.56-.16l3.77.77a.61.61,0,0,1,.47.42.64.64,0,0,1-.13.62l-2.57,2.8A.64.64,0,0,1,112.81,63.79Zm3.91,4-.16,0a.58.58,0,0,1-.33-.1,10.45,10.45,0,0,1-1.17-.84.62.62,0,0,1-.06-.91l4.1-4.48a.62.62,0,0,1,.83-.09.63.63,0,0,1,.18.82l-3,5.28A.62.62,0,0,1,116.72,67.75Zm8,1.15a.66.66,0,0,1-.46.35,12,12,0,0,1-3.9,0,.62.62,0,0,1-.44-.93l1.84-3.25a.62.62,0,0,1,1.09,0l1.85,3.25A.63.63,0,0,1,124.7,68.9Zm5-2.51a.6.6,0,0,1-.23.44,10.34,10.34,0,0,1-1.16.84.61.61,0,0,1-.34.1l-.15,0a.64.64,0,0,1-.4-.3l-3-5.28a.63.63,0,0,1,.18-.82.62.62,0,0,1,.83.09l4.1,4.48A.59.59,0,0,1,129.74,66.39Zm2.58-2.93a.62.62,0,0,1-.48.32h-.07a.64.64,0,0,1-.47-.21l-2.56-2.8a.64.64,0,0,1-.14-.62.61.61,0,0,1,.48-.42l3.77-.77a.59.59,0,0,1,.55.16.61.61,0,0,1,.19.54A11.47,11.47,0,0,1,132.32,63.46Z"/><path class="a" d="M133.24,47A15.49,15.49,0,1,0,137.77,58,15.39,15.39,0,0,0,133.24,47Zm-.64,6.48a.6.6,0,0,1,.35.35,10,10,0,0,1,.44,1.41.58.58,0,0,1-.08.48.58.58,0,0,1-.4.28l-6.08,1.25h-.13a.63.63,0,0,1-.26-1.2l5.67-2.57A.6.6,0,0,1,132.6,53.52Zm-6.66-1.37.44-3.95a.68.68,0,0,1,.32-.48.66.66,0,0,1,.58,0,11.39,11.39,0,0,1,3.33,2.46.63.63,0,0,1-.19,1l-3.6,1.64a.75.75,0,0,1-.26.05.63.63,0,0,1-.37-.12A.62.62,0,0,1,125.94,52.15ZM121.1,46.8a.63.63,0,0,1,.44-.22,12.34,12.34,0,0,1,1.49,0,.63.63,0,0,1,.45.22.64.64,0,0,1,.14.48l-.71,6.26a.62.62,0,0,1-.62.56.64.64,0,0,1-.63-.56l-.7-6.26A.64.64,0,0,1,121.1,46.8Zm1.19,9.29A1.9,1.9,0,1,1,120.4,58,1.89,1.89,0,0,1,122.29,56.09ZM114,50.16a11.66,11.66,0,0,1,3.33-2.46.66.66,0,0,1,.58,0,.62.62,0,0,1,.32.48l.45,3.95a.63.63,0,0,1-.63.7.85.85,0,0,1-.26-.05l-3.59-1.64a.61.61,0,0,1-.36-.45A.62.62,0,0,1,114,50.16Zm-2.78,5.12a13.56,13.56,0,0,1,.44-1.41.63.63,0,0,1,.35-.35.62.62,0,0,1,.5,0l5.67,2.57a.63.63,0,0,1-.26,1.2h-.13L111.67,56a.6.6,0,0,1-.41-.28A.62.62,0,0,1,111.18,55.28Zm1.63,8.51h-.08a.61.61,0,0,1-.47-.32A11.26,11.26,0,0,1,111,59.67a.61.61,0,0,1,.19-.54.59.59,0,0,1,.56-.16l3.77.77a.61.61,0,0,1,.47.42.64.64,0,0,1-.13.62l-2.57,2.8A.64.64,0,0,1,112.81,63.79Zm3.91,4-.16,0a.58.58,0,0,1-.33-.1,10.45,10.45,0,0,1-1.17-.84.62.62,0,0,1-.06-.91l4.1-4.48a.62.62,0,0,1,.83-.09.63.63,0,0,1,.18.82l-3,5.28A.62.62,0,0,1,116.72,67.75Zm8,1.15a.66.66,0,0,1-.46.35,12,12,0,0,1-3.9,0,.62.62,0,0,1-.44-.93l1.84-3.25a.62.62,0,0,1,1.09,0l1.85,3.25A.63.63,0,0,1,124.7,68.9Zm5-2.51a.6.6,0,0,1-.23.44,10.34,10.34,0,0,1-1.16.84.61.61,0,0,1-.34.1l-.15,0a.64.64,0,0,1-.4-.3l-3-5.28a.63.63,0,0,1,.18-.82.62.62,0,0,1,.83.09l4.1,4.48A.59.59,0,0,1,129.74,66.39Zm2.58-2.93a.62.62,0,0,1-.48.32h-.07a.64.64,0,0,1-.47-.21l-2.56-2.8a.64.64,0,0,1-.14-.62.61.61,0,0,1,.48-.42l3.77-.77a.59.59,0,0,1,.55.16.61.61,0,0,1,.19.54A11.47,11.47,0,0,1,132.32,63.46Z"/><path d="M133.24,47A15.49,15.49,0,1,0,137.77,58,15.39,15.39,0,0,0,133.24,47Zm-.64,6.48a.6.6,0,0,1,.35.35,10,10,0,0,1,.44,1.41.58.58,0,0,1-.08.48.58.58,0,0,1-.4.28l-6.08,1.25h-.13a.63.63,0,0,1-.26-1.2l5.67-2.57A.6.6,0,0,1,132.6,53.52Zm-6.66-1.37.44-3.95a.68.68,0,0,1,.32-.48.66.66,0,0,1,.58,0,11.39,11.39,0,0,1,3.33,2.46.63.63,0,0,1-.19,1l-3.6,1.64a.75.75,0,0,1-.26.05.63.63,0,0,1-.37-.12A.62.62,0,0,1,125.94,52.15ZM121.1,46.8a.63.63,0,0,1,.44-.22,12.34,12.34,0,0,1,1.49,0,.63.63,0,0,1,.45.22.64.64,0,0,1,.14.48l-.71,6.26a.62.62,0,0,1-.62.56.64.64,0,0,1-.63-.56l-.7-6.26A.64.64,0,0,1,121.1,46.8Zm1.19,9.29A1.9,1.9,0,1,1,120.4,58,1.89,1.89,0,0,1,122.29,56.09ZM114,50.16a11.66,11.66,0,0,1,3.33-2.46.66.66,0,0,1,.58,0,.62.62,0,0,1,.32.48l.45,3.95a.63.63,0,0,1-.63.7.85.85,0,0,1-.26-.05l-3.59-1.64a.61.61,0,0,1-.36-.45A.62.62,0,0,1,114,50.16Zm-2.78,5.12a13.56,13.56,0,0,1,.44-1.41.63.63,0,0,1,.35-.35.62.62,0,0,1,.5,0l5.67,2.57a.63.63,0,0,1-.26,1.2h-.13L111.67,56a.6.6,0,0,1-.41-.28A.62.62,0,0,1,111.18,55.28Zm1.63,8.51h-.08a.61.61,0,0,1-.47-.32A11.26,11.26,0,0,1,111,59.67a.61.61,0,0,1,.19-.54.59.59,0,0,1,.56-.16l3.77.77a.61.61,0,0,1,.47.42.64.64,0,0,1-.13.62l-2.57,2.8A.64.64,0,0,1,112.81,63.79Zm3.91,4-.16,0a.58.58,0,0,1-.33-.1,10.45,10.45,0,0,1-1.17-.84.62.62,0,0,1-.06-.91l4.1-4.48a.62.62,0,0,1,.83-.09.63.63,0,0,1,.18.82l-3,5.28A.62.62,0,0,1,116.72,67.75Zm8,1.15a.66.66,0,0,1-.46.35,12,12,0,0,1-3.9,0,.62.62,0,0,1-.44-.93l1.84-3.25a.62.62,0,0,1,1.09,0l1.85,3.25A.63.63,0,0,1,124.7,68.9Zm5-2.51a.6.6,0,0,1-.23.44,10.34,10.34,0,0,1-1.16.84.61.61,0,0,1-.34.1l-.15,0a.64.64,0,0,1-.4-.3l-3-5.28a.63.63,0,0,1,.18-.82.62.62,0,0,1,.83.09l4.1,4.48A.59.59,0,0,1,129.74,66.39Zm2.58-2.93a.62.62,0,0,1-.48.32h-.07a.64.64,0,0,1-.47-.21l-2.56-2.8a.64.64,0,0,1-.14-.62.61.61,0,0,1,.48-.42l3.77-.77a.59.59,0,0,1,.55.16.61.61,0,0,1,.19.54A11.47,11.47,0,0,1,132.32,63.46Z"/><polygon class="b" points="102.13 2.5 102.13 45.5 142.05 45.5 142.05 2.5 125.5 2.5 125.5 36.5 119.5 36.5 119.5 2.5 102.13 2.5"/><polygon class="c" points="102.13 2.5 102.13 45.5 142.05 45.5 142.05 2.5 125.5 2.5 125.5 36.5 119.5 36.5 119.5 2.5 102.13 2.5"/><polygon class="b" points="66.5 15.5 66.5 45.5 94.97 45.5 94.97 39.5 78.5 39.5 78.5 33.5 90.5 33.5 90.5 27.5 78.5 27.5 78.5 21.5 94.5 21.5 94.53 15.5 66.5 15.5"/><polygon class="c" points="66.5 15.5 66.5 45.5 94.97 45.5 94.97 39.5 78.5 39.5 78.5 33.5 90.5 33.5 90.5 27.5 78.5 27.5 78.5 21.5 94.5 21.5 94.53 15.5 66.5 15.5"/><polygon class="b" points="2.5 2.5 18.83 2.5 18.83 23.9 24.95 23.9 24.95 15.5 36.5 15.5 36.5 23.9 42.42 23.9 42.42 2.5 59.31 2.5 59.31 36.87 53.38 36.87 53.5 45.5 36.5 45.5 36.5 32.5 25.5 32.5 25.54 45.5 8.1 45.5 8.1 36.87 2.5 36.87 2.5 2.5"/><polygon class="c" points="2.5 2.5 18.83 2.5 18.83 23.9 24.95 23.9 24.95 15.5 36.5 15.5 36.5 23.9 42.42 23.9 42.42 2.5 59.31 2.5 59.31 36.87 53.38 36.87 53.5 45.5 36.5 45.5 36.5 32.5 25.5 32.5 25.54 45.5 8.1 45.5 8.1 36.87 2.5 36.87 2.5 2.5"/><path d="M37.24,47A15.49,15.49,0,1,0,41.77,58,15.39,15.39,0,0,0,37.24,47Zm-.64,6.48a.6.6,0,0,1,.35.35,10,10,0,0,1,.44,1.41.58.58,0,0,1-.08.48.58.58,0,0,1-.4.28l-6.08,1.25H30.7a.63.63,0,0,1-.26-1.2l5.67-2.57A.6.6,0,0,1,36.6,53.52Zm-6.66-1.37.44-3.95a.68.68,0,0,1,.32-.48.66.66,0,0,1,.58,0,11.39,11.39,0,0,1,3.33,2.46.63.63,0,0,1-.19,1l-3.6,1.64a.75.75,0,0,1-.26.05.63.63,0,0,1-.37-.12A.62.62,0,0,1,29.94,52.15ZM25.1,46.8a.63.63,0,0,1,.44-.22,12.34,12.34,0,0,1,1.49,0,.63.63,0,0,1,.45.22.64.64,0,0,1,.14.48l-.71,6.26a.62.62,0,0,1-.62.56.64.64,0,0,1-.63-.56L25,47.28A.64.64,0,0,1,25.1,46.8Zm1.19,9.29A1.9,1.9,0,1,1,24.4,58,1.89,1.89,0,0,1,26.29,56.09ZM18,50.16a11.66,11.66,0,0,1,3.33-2.46.66.66,0,0,1,.58,0,.62.62,0,0,1,.32.48l.45,3.95a.63.63,0,0,1-.63.7.85.85,0,0,1-.26-.05l-3.59-1.64a.61.61,0,0,1-.36-.45A.62.62,0,0,1,18,50.16Zm-2.78,5.12a13.56,13.56,0,0,1,.44-1.41.63.63,0,0,1,.35-.35.62.62,0,0,1,.5,0l5.67,2.57a.63.63,0,0,1-.26,1.2h-.13L15.67,56a.6.6,0,0,1-.41-.28A.62.62,0,0,1,15.18,55.28Zm1.63,8.51h-.08a.61.61,0,0,1-.47-.32A11.26,11.26,0,0,1,15,59.67a.61.61,0,0,1,.19-.54.59.59,0,0,1,.56-.16l3.77.77a.61.61,0,0,1,.47.42.64.64,0,0,1-.13.62l-2.57,2.8A.64.64,0,0,1,16.81,63.79Zm3.91,4-.16,0a.58.58,0,0,1-.33-.1,10.45,10.45,0,0,1-1.17-.84.62.62,0,0,1-.06-.91l4.1-4.48a.62.62,0,0,1,.83-.09.63.63,0,0,1,.18.82l-3,5.28A.62.62,0,0,1,20.72,67.75Zm8,1.15a.66.66,0,0,1-.46.35,12,12,0,0,1-3.9,0,.62.62,0,0,1-.44-.93l1.84-3.25a.62.62,0,0,1,1.09,0l1.85,3.25A.63.63,0,0,1,28.7,68.9Zm5-2.51a.6.6,0,0,1-.23.44,10.34,10.34,0,0,1-1.16.84.61.61,0,0,1-.34.1l-.15,0a.64.64,0,0,1-.4-.3l-3-5.28a.63.63,0,0,1,.18-.82.62.62,0,0,1,.83.09l4.1,4.48A.59.59,0,0,1,33.74,66.39Zm2.58-2.93a.62.62,0,0,1-.48.32h-.07a.64.64,0,0,1-.47-.21l-2.56-2.8a.64.64,0,0,1-.14-.62.61.61,0,0,1,.48-.42L36.85,59a.59.59,0,0,1,.55.16.61.61,0,0,1,.19.54A11.47,11.47,0,0,1,36.32,63.46Z"/><path class="a" d="M37.24,47A15.49,15.49,0,1,0,41.77,58,15.39,15.39,0,0,0,37.24,47Zm-.64,6.48a.6.6,0,0,1,.35.35,10,10,0,0,1,.44,1.41.58.58,0,0,1-.08.48.58.58,0,0,1-.4.28l-6.08,1.25H30.7a.63.63,0,0,1-.26-1.2l5.67-2.57A.6.6,0,0,1,36.6,53.52Zm-6.66-1.37.44-3.95a.68.68,0,0,1,.32-.48.66.66,0,0,1,.58,0,11.39,11.39,0,0,1,3.33,2.46.63.63,0,0,1-.19,1l-3.6,1.64a.75.75,0,0,1-.26.05.63.63,0,0,1-.37-.12A.62.62,0,0,1,29.94,52.15ZM25.1,46.8a.63.63,0,0,1,.44-.22,12.34,12.34,0,0,1,1.49,0,.63.63,0,0,1,.45.22.64.64,0,0,1,.14.48l-.71,6.26a.62.62,0,0,1-.62.56.64.64,0,0,1-.63-.56L25,47.28A.64.64,0,0,1,25.1,46.8Zm1.19,9.29A1.9,1.9,0,1,1,24.4,58,1.89,1.89,0,0,1,26.29,56.09ZM18,50.16a11.66,11.66,0,0,1,3.33-2.46.66.66,0,0,1,.58,0,.62.62,0,0,1,.32.48l.45,3.95a.63.63,0,0,1-.63.7.85.85,0,0,1-.26-.05l-3.59-1.64a.61.61,0,0,1-.36-.45A.62.62,0,0,1,18,50.16Zm-2.78,5.12a13.56,13.56,0,0,1,.44-1.41.63.63,0,0,1,.35-.35.62.62,0,0,1,.5,0l5.67,2.57a.63.63,0,0,1-.26,1.2h-.13L15.67,56a.6.6,0,0,1-.41-.28A.62.62,0,0,1,15.18,55.28Zm1.63,8.51h-.08a.61.61,0,0,1-.47-.32A11.26,11.26,0,0,1,15,59.67a.61.61,0,0,1,.19-.54.59.59,0,0,1,.56-.16l3.77.77a.61.61,0,0,1,.47.42.64.64,0,0,1-.13.62l-2.57,2.8A.64.64,0,0,1,16.81,63.79Zm3.91,4-.16,0a.58.58,0,0,1-.33-.1,10.45,10.45,0,0,1-1.17-.84.62.62,0,0,1-.06-.91l4.1-4.48a.62.62,0,0,1,.83-.09.63.63,0,0,1,.18.82l-3,5.28A.62.62,0,0,1,20.72,67.75Zm8,1.15a.66.66,0,0,1-.46.35,12,12,0,0,1-3.9,0,.62.62,0,0,1-.44-.93l1.84-3.25a.62.62,0,0,1,1.09,0l1.85,3.25A.63.63,0,0,1,28.7,68.9Zm5-2.51a.6.6,0,0,1-.23.44,10.34,10.34,0,0,1-1.16.84.61.61,0,0,1-.34.1l-.15,0a.64.64,0,0,1-.4-.3l-3-5.28a.63.63,0,0,1,.18-.82.62.62,0,0,1,.83.09l4.1,4.48A.59.59,0,0,1,33.74,66.39Zm2.58-2.93a.62.62,0,0,1-.48.32h-.07a.64.64,0,0,1-.47-.21l-2.56-2.8a.64.64,0,0,1-.14-.62.61.61,0,0,1,.48-.42L36.85,59a.59.59,0,0,1,.55.16.61.61,0,0,1,.19.54A11.47,11.47,0,0,1,36.32,63.46Z"/><path d="M37.24,47A15.49,15.49,0,1,0,41.77,58,15.39,15.39,0,0,0,37.24,47Zm-.64,6.48a.6.6,0,0,1,.35.35,10,10,0,0,1,.44,1.41.58.58,0,0,1-.08.48.58.58,0,0,1-.4.28l-6.08,1.25H30.7a.63.63,0,0,1-.26-1.2l5.67-2.57A.6.6,0,0,1,36.6,53.52Zm-6.66-1.37.44-3.95a.68.68,0,0,1,.32-.48.66.66,0,0,1,.58,0,11.39,11.39,0,0,1,3.33,2.46.63.63,0,0,1-.19,1l-3.6,1.64a.75.75,0,0,1-.26.05.63.63,0,0,1-.37-.12A.62.62,0,0,1,29.94,52.15ZM25.1,46.8a.63.63,0,0,1,.44-.22,12.34,12.34,0,0,1,1.49,0,.63.63,0,0,1,.45.22.64.64,0,0,1,.14.48l-.71,6.26a.62.62,0,0,1-.62.56.64.64,0,0,1-.63-.56L25,47.28A.64.64,0,0,1,25.1,46.8Zm1.19,9.29A1.9,1.9,0,1,1,24.4,58,1.89,1.89,0,0,1,26.29,56.09ZM18,50.16a11.66,11.66,0,0,1,3.33-2.46.66.66,0,0,1,.58,0,.62.62,0,0,1,.32.48l.45,3.95a.63.63,0,0,1-.63.7.85.85,0,0,1-.26-.05l-3.59-1.64a.61.61,0,0,1-.36-.45A.62.62,0,0,1,18,50.16Zm-2.78,5.12a13.56,13.56,0,0,1,.44-1.41.63.63,0,0,1,.35-.35.62.62,0,0,1,.5,0l5.67,2.57a.63.63,0,0,1-.26,1.2h-.13L15.67,56a.6.6,0,0,1-.41-.28A.62.62,0,0,1,15.18,55.28Zm1.63,8.51h-.08a.61.61,0,0,1-.47-.32A11.26,11.26,0,0,1,15,59.67a.61.61,0,0,1,.19-.54.59.59,0,0,1,.56-.16l3.77.77a.61.61,0,0,1,.47.42.64.64,0,0,1-.13.62l-2.57,2.8A.64.64,0,0,1,16.81,63.79Zm3.91,4-.16,0a.58.58,0,0,1-.33-.1,10.45,10.45,0,0,1-1.17-.84.62.62,0,0,1-.06-.91l4.1-4.48a.62.62,0,0,1,.83-.09.63.63,0,0,1,.18.82l-3,5.28A.62.62,0,0,1,20.72,67.75Zm8,1.15a.66.66,0,0,1-.46.35,12,12,0,0,1-3.9,0,.62.62,0,0,1-.44-.93l1.84-3.25a.62.62,0,0,1,1.09,0l1.85,3.25A.63.63,0,0,1,28.7,68.9Zm5-2.51a.6.6,0,0,1-.23.44,10.34,10.34,0,0,1-1.16.84.61.61,0,0,1-.34.1l-.15,0a.64.64,0,0,1-.4-.3l-3-5.28a.63.63,0,0,1,.18-.82.62.62,0,0,1,.83.09l4.1,4.48A.59.59,0,0,1,33.74,66.39Zm2.58-2.93a.62.62,0,0,1-.48.32h-.07a.64.64,0,0,1-.47-.21l-2.56-2.8a.64.64,0,0,1-.14-.62.61.61,0,0,1,.48-.42L36.85,59a.59.59,0,0,1,.55.16.61.61,0,0,1,.19.54A11.47,11.47,0,0,1,36.32,63.46Z"/></svg>