<svg xmlns="http://www.w3.org/2000/svg" viewBox="0 0 142.54 72.47"><defs><style>.a{fill:none;stroke:#fff;stroke-width:3px;}.b{fill:#cf0;}.c{fill:#ff449e;}</style></defs><path d="M130.74,44.54a15.49,15.49,0,1,0,4.53,10.94A15.39,15.39,0,0,0,130.74,44.54ZM130.1,51a.6.6,0,0,1,.35.35,10,10,0,0,1,.44,1.41.58.58,0,0,1-.08.48.58.58,0,0,1-.4.28l-6.08,1.25h-.13a.63.63,0,0,1-.26-1.2L129.61,51A.6.6,0,0,1,130.1,51Zm-6.66-1.37.44-3.95a.68.68,0,0,1,.32-.48.66.66,0,0,1,.58,0,11.39,11.39,0,0,1,3.33,2.46.63.63,0,0,1-.19,1l-3.6,1.64a.75.75,0,0,1-.26.05.63.63,0,0,1-.37-.12A.62.62,0,0,1,123.44,49.65ZM118.6,44.3a.63.63,0,0,1,.44-.22,12.34,12.34,0,0,1,1.49,0,.63.63,0,0,1,.45.22.64.64,0,0,1,.14.48L120.41,51a.62.62,0,0,1-.62.56.64.64,0,0,1-.63-.56l-.7-6.26A.64.64,0,0,1,118.6,44.3Zm1.19,9.29a1.9,1.9,0,1,1-1.89,1.89A1.89,1.89,0,0,1,119.79,53.59Zm-8.33-5.93a11.66,11.66,0,0,1,3.33-2.46.66.66,0,0,1,.58,0,.62.62,0,0,1,.32.48l.45,3.95a.63.63,0,0,1-.63.7.85.85,0,0,1-.26-.05l-3.59-1.64a.61.61,0,0,1-.36-.45A.62.62,0,0,1,111.46,47.66Zm-2.78,5.12a13.56,13.56,0,0,1,.44-1.41.63.63,0,0,1,.35-.35.62.62,0,0,1,.5,0l5.67,2.57a.63.63,0,0,1-.26,1.2h-.13l-6.08-1.25a.6.6,0,0,1-.41-.28A.62.62,0,0,1,108.68,52.78Zm1.63,8.51h-.08a.61.61,0,0,1-.47-.32,11.26,11.26,0,0,1-1.28-3.79.61.61,0,0,1,.19-.54.59.59,0,0,1,.56-.16l3.77.77a.61.61,0,0,1,.47.42.64.64,0,0,1-.13.62l-2.57,2.8A.64.64,0,0,1,110.31,61.29Zm3.91,4-.16,0a.58.58,0,0,1-.33-.1,10.45,10.45,0,0,1-1.17-.84.62.62,0,0,1-.06-.91l4.1-4.48a.62.62,0,0,1,.83-.09.63.63,0,0,1,.18.82l-3,5.28A.62.62,0,0,1,114.22,65.25Zm8,1.15a.66.66,0,0,1-.46.35,12,12,0,0,1-3.9,0,.62.62,0,0,1-.44-.93l1.84-3.25a.62.62,0,0,1,1.09,0l1.85,3.25A.63.63,0,0,1,122.2,66.4Zm5-2.51a.6.6,0,0,1-.23.44,10.34,10.34,0,0,1-1.16.84.61.61,0,0,1-.34.1l-.15,0a.64.64,0,0,1-.4-.3l-3-5.28a.63.63,0,0,1,.18-.82.62.62,0,0,1,.83.09l4.1,4.48A.59.59,0,0,1,127.24,63.89ZM129.82,61a.62.62,0,0,1-.48.32h-.07a.64.64,0,0,1-.47-.21l-2.56-2.8a.64.64,0,0,1-.14-.62.61.61,0,0,1,.48-.42l3.77-.77a.59.59,0,0,1,.55.16.61.61,0,0,1,.19.54A11.47,11.47,0,0,1,129.82,61Z"/><path class="a" d="M130.74,44.54a15.49,15.49,0,1,0,4.53,10.94A15.39,15.39,0,0,0,130.74,44.54ZM130.1,51a.6.6,0,0,1,.35.35,10,10,0,0,1,.44,1.41.58.58,0,0,1-.08.48.58.58,0,0,1-.4.28l-6.08,1.25h-.13a.63.63,0,0,1-.26-1.2L129.61,51A.6.6,0,0,1,130.1,51Zm-6.66-1.37.44-3.95a.68.68,0,0,1,.32-.48.66.66,0,0,1,.58,0,11.39,11.39,0,0,1,3.33,2.46.63.63,0,0,1-.19,1l-3.6,1.64a.75.75,0,0,1-.26.05.63.63,0,0,1-.37-.12A.62.62,0,0,1,123.44,49.65ZM118.6,44.3a.63.63,0,0,1,.44-.22,12.34,12.34,0,0,1,1.49,0,.63.63,0,0,1,.45.22.64.64,0,0,1,.14.48L120.41,51a.62.62,0,0,1-.62.56.64.64,0,0,1-.63-.56l-.7-6.26A.64.64,0,0,1,118.6,44.3Zm1.19,9.29a1.9,1.9,0,1,1-1.89,1.89A1.89,1.89,0,0,1,119.79,53.59Zm-8.33-5.93a11.66,11.66,0,0,1,3.33-2.46.66.66,0,0,1,.58,0,.62.62,0,0,1,.32.48l.45,3.95a.63.63,0,0,1-.63.7.85.85,0,0,1-.26-.05l-3.59-1.64a.61.61,0,0,1-.36-.45A.62.62,0,0,1,111.46,47.66Zm-2.78,5.12a13.56,13.56,0,0,1,.44-1.41.63.63,0,0,1,.35-.35.62.62,0,0,1,.5,0l5.67,2.57a.63.63,0,0,1-.26,1.2h-.13l-6.08-1.25a.6.6,0,0,1-.41-.28A.62.62,0,0,1,108.68,52.78Zm1.63,8.51h-.08a.61.61,0,0,1-.47-.32,11.26,11.26,0,0,1-1.28-3.79.61.61,0,0,1,.19-.54.59.59,0,0,1,.56-.16l3.77.77a.61.61,0,0,1,.47.42.64.64,0,0,1-.13.62l-2.57,2.8A.64.64,0,0,1,110.31,61.29Zm3.91,4-.16,0a.58.58,0,0,1-.33-.1,10.45,10.45,0,0,1-1.17-.84.62.62,0,0,1-.06-.91l4.1-4.48a.62.62,0,0,1,.83-.09.63.63,0,0,1,.18.82l-3,5.28A.62.62,0,0,1,114.22,65.25Zm8,1.15a.66.66,0,0,1-.46.35,12,12,0,0,1-3.9,0,.62.62,0,0,1-.44-.93l1.84-3.25a.62.62,0,0,1,1.09,0l1.85,3.25A.63.63,0,0,1,122.2,66.4Zm5-2.51a.6.6,0,0,1-.23.44,10.34,10.34,0,0,1-1.16.84.61.61,0,0,1-.34.1l-.15,0a.64.64,0,0,1-.4-.3l-3-5.28a.63.63,0,0,1,.18-.82.62.62,0,0,1,.83.09l4.1,4.48A.59.59,0,0,1,127.24,63.89ZM129.82,61a.62.62,0,0,1-.48.32h-.07a.64.64,0,0,1-.47-.21l-2.56-2.8a.64.64,0,0,1-.14-.62.61.61,0,0,1,.48-.42l3.77-.77a.59.59,0,0,1,.55.16.61.61,0,0,1,.19.54A11.47,11.47,0,0,1,129.82,61Z"/><path d="M130.74,44.54a15.49,15.49,0,1,0,4.53,10.94A15.39,15.39,0,0,0,130.74,44.54ZM130.1,51a.6.6,0,0,1,.35.35,10,10,0,0,1,.44,1.41.58.58,0,0,1-.08.48.58.58,0,0,1-.4.28l-6.08,1.25h-.13a.63.63,0,0,1-.26-1.2L129.61,51A.6.6,0,0,1,130.1,51Zm-6.66-1.37.44-3.95a.68.68,0,0,1,.32-.48.66.66,0,0,1,.58,0,11.39,11.39,0,0,1,3.33,2.46.63.63,0,0,1-.19,1l-3.6,1.64a.75.75,0,0,1-.26.05.63.63,0,0,1-.37-.12A.62.62,0,0,1,123.44,49.65ZM118.6,44.3a.63.63,0,0,1,.44-.22,12.34,12.34,0,0,1,1.49,0,.63.63,0,0,1,.45.22.64.64,0,0,1,.14.48L120.41,51a.62.62,0,0,1-.62.56.64.64,0,0,1-.63-.56l-.7-6.26A.64.64,0,0,1,118.6,44.3Zm1.19,9.29a1.9,1.9,0,1,1-1.89,1.89A1.89,1.89,0,0,1,119.79,53.59Zm-8.33-5.93a11.66,11.66,0,0,1,3.33-2.46.66.66,0,0,1,.58,0,.62.62,0,0,1,.32.48l.45,3.95a.63.63,0,0,1-.63.7.85.85,0,0,1-.26-.05l-3.59-1.64a.61.61,0,0,1-.36-.45A.62.62,0,0,1,111.46,47.66Zm-2.78,5.12a13.56,13.56,0,0,1,.44-1.41.63.63,0,0,1,.35-.35.62.62,0,0,1,.5,0l5.67,2.57a.63.63,0,0,1-.26,1.2h-.13l-6.08-1.25a.6.6,0,0,1-.41-.28A.62.62,0,0,1,108.68,52.78Zm1.63,8.51h-.08a.61.61,0,0,1-.47-.32,11.26,11.26,0,0,1-1.28-3.79.61.61,0,0,1,.19-.54.59.59,0,0,1,.56-.16l3.77.77a.61.61,0,0,1,.47.42.64.64,0,0,1-.13.62l-2.57,2.8A.64.64,0,0,1,110.31,61.29Zm3.91,4-.16,0a.58.58,0,0,1-.33-.1,10.45,10.45,0,0,1-1.17-.84.62.62,0,0,1-.06-.91l4.1-4.48a.62.62,0,0,1,.83-.09.63.63,0,0,1,.18.82l-3,5.28A.62.62,0,0,1,114.22,65.25Zm8,1.15a.66.66,0,0,1-.46.35,12,12,0,0,1-3.9,0,.62.62,0,0,1-.44-.93l1.84-3.25a.62.62,0,0,1,1.09,0l1.85,3.25A.63.63,0,0,1,122.2,66.4Zm5-2.51a.6.6,0,0,1-.23.44,10.34,10.34,0,0,1-1.16.84.61.61,0,0,1-.34.1l-.15,0a.64.64,0,0,1-.4-.3l-3-5.28a.63.63,0,0,1,.18-.82.62.62,0,0,1,.83.09l4.1,4.48A.59.59,0,0,1,127.24,63.89ZM129.82,61a.62.62,0,0,1-.48.32h-.07a.64.64,0,0,1-.47-.21l-2.56-2.8a.64.64,0,0,1-.14-.62.61.61,0,0,1,.48-.42l3.77-.77a.59.59,0,0,1,.55.16.61.61,0,0,1,.19.54A11.47,11.47,0,0,1,129.82,61Z"/><polygon class="b" points="102.61 2.36 102.61 45.36 142.54 45.36 142.54 2.36 125.99 2.36 125.99 36.36 119.99 36.36 119.99 2.36 102.61 2.36"/><polygon class="b" points="66.99 15.36 66.99 45.36 95.46 45.36 95.46 39.36 78.99 39.36 78.99 33.36 90.99 33.36 90.99 27.36 78.99 27.36 78.99 21.36 94.99 21.36 95.01 15.36 66.99 15.36"/><polygon class="b" points="2.99 2.36 19.32 2.36 19.32 23.75 25.44 23.75 25.44 15.59 36.99 15.36 36.99 23.75 42.91 23.75 42.91 2.36 59.8 2.36 59.8 36.72 53.87 36.72 53.99 45.36 36.99 45.36 36.99 32.36 25.99 32.36 26.03 45.36 8.59 45.36 8.59 36.72 2.99 36.72 2.99 2.36"/><polygon class="c" points="99.63 0 99.63 43 139.55 43 139.55 0 123 0 123 34 117 34 117 0 99.63 0"/><polygon class="c" points="64 13 64 43 92.47 43 92.47 37 76 37 76 31 88 31 88 25 76 25 76 19 92 19 92.03 13 64 13"/><polygon class="c" points="0 0 16.33 0 16.33 21.4 22.45 21.4 22.45 13 34 13 34 21.4 39.92 21.4 39.92 0 56.81 0 56.81 34.37 50.88 34.37 51 43 34 43 34 30 23 30 23.04 43 5.6 43 5.6 34.37 0 34.37 0 0"/><path d="M34.74,44.54a15.49,15.49,0,1,0,4.53,10.94A15.39,15.39,0,0,0,34.74,44.54ZM34.1,51a.6.6,0,0,1,.35.35,10,10,0,0,1,.44,1.41.58.58,0,0,1-.08.48.58.58,0,0,1-.4.28l-6.08,1.25H28.2a.63.63,0,0,1-.26-1.2L33.61,51A.6.6,0,0,1,34.1,51Zm-6.66-1.37.44-3.95a.68.68,0,0,1,.32-.48.66.66,0,0,1,.58,0,11.39,11.39,0,0,1,3.33,2.46.63.63,0,0,1-.19,1l-3.6,1.64a.75.75,0,0,1-.26.05.63.63,0,0,1-.37-.12A.62.62,0,0,1,27.44,49.65ZM22.6,44.3a.63.63,0,0,1,.44-.22,12.34,12.34,0,0,1,1.49,0,.63.63,0,0,1,.45.22.64.64,0,0,1,.14.48L24.41,51a.62.62,0,0,1-.62.56.64.64,0,0,1-.63-.56l-.7-6.26A.64.64,0,0,1,22.6,44.3Zm1.19,9.29a1.9,1.9,0,1,1-1.89,1.89A1.89,1.89,0,0,1,23.79,53.59Zm-8.33-5.93a11.66,11.66,0,0,1,3.33-2.46.66.66,0,0,1,.58,0,.62.62,0,0,1,.32.48l.45,3.95a.63.63,0,0,1-.63.7.85.85,0,0,1-.26-.05l-3.59-1.64a.61.61,0,0,1-.36-.45A.62.62,0,0,1,15.46,47.66Zm-2.78,5.12a13.56,13.56,0,0,1,.44-1.41.63.63,0,0,1,.35-.35.62.62,0,0,1,.5,0l5.67,2.57a.63.63,0,0,1-.26,1.2h-.13l-6.08-1.25a.6.6,0,0,1-.41-.28A.62.62,0,0,1,12.68,52.78Zm1.63,8.51h-.08a.61.61,0,0,1-.47-.32,11.26,11.26,0,0,1-1.28-3.79.61.61,0,0,1,.19-.54.59.59,0,0,1,.56-.16l3.77.77a.61.61,0,0,1,.47.42.64.64,0,0,1-.13.62l-2.57,2.8A.64.64,0,0,1,14.31,61.29Zm3.91,4-.16,0a.58.58,0,0,1-.33-.1,10.45,10.45,0,0,1-1.17-.84.62.62,0,0,1-.06-.91l4.1-4.48a.62.62,0,0,1,.83-.09.63.63,0,0,1,.18.82l-3,5.28A.62.62,0,0,1,18.22,65.25Zm8,1.15a.66.66,0,0,1-.46.35,12,12,0,0,1-3.9,0,.62.62,0,0,1-.44-.93l1.84-3.25a.62.62,0,0,1,1.09,0l1.85,3.25A.63.63,0,0,1,26.2,66.4Zm5-2.51a.6.6,0,0,1-.23.44,10.34,10.34,0,0,1-1.16.84.61.61,0,0,1-.34.1l-.15,0A.64.64,0,0,1,29,65l-3-5.28a.63.63,0,0,1,.18-.82.62.62,0,0,1,.83.09l4.1,4.48A.59.59,0,0,1,31.24,63.89ZM33.82,61a.62.62,0,0,1-.48.32h-.07a.64.64,0,0,1-.47-.21l-2.56-2.8a.64.64,0,0,1-.14-.62.61.61,0,0,1,.48-.42l3.77-.77a.59.59,0,0,1,.55.16.61.61,0,0,1,.19.54A11.47,11.47,0,0,1,33.82,61Z"/><path class="a" d="M34.74,44.54a15.49,15.49,0,1,0,4.53,10.94A15.39,15.39,0,0,0,34.74,44.54ZM34.1,51a.6.6,0,0,1,.35.35,10,10,0,0,1,.44,1.41.58.58,0,0,1-.08.48.58.58,0,0,1-.4.28l-6.08,1.25H28.2a.63.63,0,0,1-.26-1.2L33.61,51A.6.6,0,0,1,34.1,51Zm-6.66-1.37.44-3.95a.68.68,0,0,1,.32-.48.66.66,0,0,1,.58,0,11.39,11.39,0,0,1,3.33,2.46.63.63,0,0,1-.19,1l-3.6,1.64a.75.75,0,0,1-.26.05.63.63,0,0,1-.37-.12A.62.62,0,0,1,27.44,49.65ZM22.6,44.3a.63.63,0,0,1,.44-.22,12.34,12.34,0,0,1,1.49,0,.63.63,0,0,1,.45.22.64.64,0,0,1,.14.48L24.41,51a.62.62,0,0,1-.62.56.64.64,0,0,1-.63-.56l-.7-6.26A.64.64,0,0,1,22.6,44.3Zm1.19,9.29a1.9,1.9,0,1,1-1.89,1.89A1.89,1.89,0,0,1,23.79,53.59Zm-8.33-5.93a11.66,11.66,0,0,1,3.33-2.46.66.66,0,0,1,.58,0,.62.62,0,0,1,.32.48l.45,3.95a.63.63,0,0,1-.63.7.85.85,0,0,1-.26-.05l-3.59-1.64a.61.61,0,0,1-.36-.45A.62.62,0,0,1,15.46,47.66Zm-2.78,5.12a13.56,13.56,0,0,1,.44-1.41.63.63,0,0,1,.35-.35.62.62,0,0,1,.5,0l5.67,2.57a.63.63,0,0,1-.26,1.2h-.13l-6.08-1.25a.6.6,0,0,1-.41-.28A.62.62,0,0,1,12.68,52.78Zm1.63,8.51h-.08a.61.61,0,0,1-.47-.32,11.26,11.26,0,0,1-1.28-3.79.61.61,0,0,1,.19-.54.59.59,0,0,1,.56-.16l3.77.77a.61.61,0,0,1,.47.42.64.64,0,0,1-.13.62l-2.57,2.8A.64.64,0,0,1,14.31,61.29Zm3.91,4-.16,0a.58.58,0,0,1-.33-.1,10.45,10.45,0,0,1-1.17-.84.62.62,0,0,1-.06-.91l4.1-4.48a.62.62,0,0,1,.83-.09.63.63,0,0,1,.18.82l-3,5.28A.62.62,0,0,1,18.22,65.25Zm8,1.15a.66.66,0,0,1-.46.35,12,12,0,0,1-3.9,0,.62.62,0,0,1-.44-.93l1.84-3.25a.62.62,0,0,1,1.09,0l1.85,3.25A.63.63,0,0,1,26.2,66.4Zm5-2.51a.6.6,0,0,1-.23.44,10.34,10.34,0,0,1-1.16.84.61.61,0,0,1-.34.1l-.15,0A.64.64,0,0,1,29,65l-3-5.28a.63.63,0,0,1,.18-.82.62.62,0,0,1,.83.09l4.1,4.48A.59.59,0,0,1,31.24,63.89ZM33.82,61a.62.62,0,0,1-.48.32h-.07a.64.64,0,0,1-.47-.21l-2.56-2.8a.64.64,0,0,1-.14-.62.61.61,0,0,1,.48-.42l3.77-.77a.59.59,0,0,1,.55.16.61.61,0,0,1,.19.54A11.47,11.47,0,0,1,33.82,61Z"/><path d="M34.74,44.54a15.49,15.49,0,1,0,4.53,10.94A15.39,15.39,0,0,0,34.74,44.54ZM34.1,51a.6.6,0,0,1,.35.35,10,10,0,0,1,.44,1.41.58.58,0,0,1-.08.48.58.58,0,0,1-.4.28l-6.08,1.25H28.2a.63.63,0,0,1-.26-1.2L33.61,51A.6.6,0,0,1,34.1,51Zm-6.66-1.37.44-3.95a.68.68,0,0,1,.32-.48.66.66,0,0,1,.58,0,11.39,11.39,0,0,1,3.33,2.46.63.63,0,0,1-.19,1l-3.6,1.64a.75.75,0,0,1-.26.05.63.63,0,0,1-.37-.12A.62.62,0,0,1,27.44,49.65ZM22.6,44.3a.63.63,0,0,1,.44-.22,12.34,12.34,0,0,1,1.49,0,.63.63,0,0,1,.45.22.64.64,0,0,1,.14.48L24.41,51a.62.62,0,0,1-.62.56.64.64,0,0,1-.63-.56l-.7-6.26A.64.64,0,0,1,22.6,44.3Zm1.19,9.29a1.9,1.9,0,1,1-1.89,1.89A1.89,1.89,0,0,1,23.79,53.59Zm-8.33-5.93a11.66,11.66,0,0,1,3.33-2.46.66.66,0,0,1,.58,0,.62.62,0,0,1,.32.48l.45,3.95a.63.63,0,0,1-.63.7.85.85,0,0,1-.26-.05l-3.59-1.64a.61.61,0,0,1-.36-.45A.62.62,0,0,1,15.46,47.66Zm-2.78,5.12a13.56,13.56,0,0,1,.44-1.41.63.63,0,0,1,.35-.35.62.62,0,0,1,.5,0l5.67,2.57a.63.63,0,0,1-.26,1.2h-.13l-6.08-1.25a.6.6,0,0,1-.41-.28A.62.62,0,0,1,12.68,52.78Zm1.63,8.51h-.08a.61.61,0,0,1-.47-.32,11.26,11.26,0,0,1-1.28-3.79.61.61,0,0,1,.19-.54.59.59,0,0,1,.56-.16l3.77.77a.61.61,0,0,1,.47.42.64.64,0,0,1-.13.62l-2.57,2.8A.64.64,0,0,1,14.31,61.29Zm3.91,4-.16,0a.58.58,0,0,1-.33-.1,10.45,10.45,0,0,1-1.17-.84.62.62,0,0,1-.06-.91l4.1-4.48a.62.62,0,0,1,.83-.09.63.63,0,0,1,.18.82l-3,5.28A.62.62,0,0,1,18.22,65.25Zm8,1.15a.66.66,0,0,1-.46.35,12,12,0,0,1-3.9,0,.62.62,0,0,1-.44-.93l1.84-3.25a.62.62,0,0,1,1.09,0l1.85,3.25A.63.63,0,0,1,26.2,66.4Zm5-2.51a.6.6,0,0,1-.23.44,10.34,10.34,0,0,1-1.16.84.61.61,0,0,1-.34.1l-.15,0A.64.64,0,0,1,29,65l-3-5.28a.63.63,0,0,1,.18-.82.62.62,0,0,1,.83.09l4.1,4.48A.59.59,0,0,1,31.24,63.89ZM33.82,61a.62.62,0,0,1-.48.32h-.07a.64.64,0,0,1-.47-.21l-2.56-2.8a.64.64,0,0,1-.14-.62.61.61,0,0,1,.48-.42l3.77-.77a.59.59,0,0,1,.55.16.61.61,0,0,1,.19.54A11.47,11.47,0,0,1,33.82,61Z"/></svg>